<svg width="140" height="140" viewBox="0 0 140 140" fill="none" xmlns="http://www.w3.org/2000/svg">
<g clip-path="url(#clip0_17_96)">
<path d="M0 15C0 6.71573 6.71573 0 15 0H125C133.284 0 140 6.71573 140 15V125C140 133.284 133.284 140 125 140H15C6.71573 140 0 133.284 0 125V15Z" fill="#F3F3F3"/>
<path d="M69 70L112 -89" stroke="url(#paint0_linear_17_96)" stroke-width="7.99608" stroke-miterlimit="8" stroke-linecap="round"/>
<path d="M69 70L144 248" stroke="url(#paint1_linear_17_96)" stroke-width="7.99608" stroke-miterlimit="8" stroke-linecap="round"/>
<path fill-rule="evenodd" clip-rule="evenodd" d="M31 69.5C31 48.237 48.237 31 69.5 31C90.763 31 108 48.237 108 69.5C108 90.763 90.763 108 69.5 108C48.237 108 31 90.763 31 69.5Z" fill="white" stroke="black" stroke-width="7.99608" stroke-miterlimit="8"/>
</g>
<defs>
<linearGradient id="paint0_linear_17_96" x1="90.5" y1="-92.5805" x2="90.5" y2="73.5805" gradientUnits="userSpaceOnUse">
<stop stop-color="#404040"/>
<stop offset="0.2" stop-color="#404040"/>
<stop offset="0.8"/>
<stop offset="1"/>
</linearGradient>
<linearGradient id="paint1_linear_17_96" x1="106.5" y1="65.4384" x2="106.5" y2="252.562" gradientUnits="userSpaceOnUse">
<stop/>
<stop offset="0.3"/>
<stop offset="0.7" stop-color="#404040"/>
<stop offset="1" stop-color="#404040"/>
</linearGradient>
<clipPath id="clip0_17_96">
<rect width="140" height="140" fill="white"/>
</clipPath>
</defs>
</svg>
