<svg width="1390" height="1384" viewBox="0 0 1390 1384" fill="none" xmlns="http://www.w3.org/2000/svg">
<path d="M1082.09 1203.26L1075.79 1196L1068.78 1224.26L1091.34 1205.86L1082.09 1203.26Z" fill="#2563EB"/>
<path d="M1252.42 929.069C1253.56 927.18 1252.96 924.722 1251.07 923.579C1249.18 922.436 1246.72 923.041 1245.58 924.931L1252.42 929.069ZM1245.58 924.931L1072.58 1210.93L1079.42 1215.07L1252.42 929.069L1245.58 924.931Z" fill="url(#paint0_linear_2_196)"/>
<path d="M1197.63 887.083L1190 892.933L1217.79 901.634L1200.78 878L1197.63 887.083Z" fill="#2563EB"/>
<path d="M982.668 737.247C980.874 735.959 980.465 733.461 981.753 731.668C983.041 729.874 985.539 729.465 987.332 730.753L982.668 737.247ZM987.332 730.753L1207.33 888.753L1202.67 895.247L982.668 737.247L987.332 730.753Z" fill="url(#paint1_linear_2_196)"/>
<path d="M987.037 735.44C988.937 734.316 989.565 731.863 988.44 729.963C987.316 728.063 984.863 727.435 982.963 728.56L987.037 735.44ZM982.963 728.56L732.963 876.56L737.037 883.44L987.037 735.44L982.963 728.56Z" fill="url(#paint2_linear_2_196)"/>
<path d="M742.976 875.279L740.46 866L721.862 888.405L750.184 881.64L742.976 875.279Z" fill="#404040"/>
<path d="M866.534 533.993C865.433 532.079 866.093 529.635 868.007 528.534C869.921 527.433 872.365 528.093 873.466 530.007L866.534 533.993ZM873.466 530.007L961.466 683.007L954.534 686.993L866.534 533.993L873.466 530.007Z" fill="url(#paint3_linear_2_196)"/>
<path d="M952.358 674.991L943 677.194L964.77 696.533L958.957 668L952.358 674.991Z" fill="#2563EB"/>
<path d="M796 356L838 196" stroke="url(#paint4_linear_2_196)" stroke-width="7.99608" stroke-miterlimit="8" stroke-linecap="round"/>
<path d="M838 196L944 107" stroke="url(#paint5_linear_2_196)" stroke-width="7.99608" stroke-miterlimit="8" stroke-linecap="round"/>
<path d="M838 196L610 113" stroke="url(#paint6_linear_2_196)" stroke-width="7.99608" stroke-miterlimit="8" stroke-linecap="round"/>
<path d="M610 113L432 222" stroke="url(#paint7_linear_2_196)" stroke-width="7.99608" stroke-miterlimit="8" stroke-linecap="round"/>
<path d="M796 356L870 533" stroke="url(#paint8_linear_2_196)" stroke-width="7.99608" stroke-miterlimit="8" stroke-linecap="round"/>
<path d="M870 533L707 631" stroke="url(#paint9_linear_2_196)" stroke-width="7.99608" stroke-miterlimit="8" stroke-linecap="round"/>
<path d="M707 631L586 498" stroke="url(#paint10_linear_2_196)" stroke-width="7.99608" stroke-miterlimit="8" stroke-linecap="round"/>
<path d="M707 631L476 606" stroke="url(#paint11_linear_2_196)" stroke-width="7.99608" stroke-miterlimit="8" stroke-linecap="round"/>
<path d="M586 498L476 606" stroke="#7F7F7F" stroke-width="7.99608" stroke-miterlimit="8" stroke-linecap="round"/>
<path d="M672.5 967C700.943 967 724 943.943 724 915.5C724 887.057 700.943 864 672.5 864C644.057 864 621 887.057 621 915.5C621 943.943 644.057 967 672.5 967Z" fill="#DDDDDD" fill-opacity="0.866667" stroke="#404040" stroke-width="7.99608" stroke-miterlimit="8"/>
<path d="M985 772C1005.99 772 1023 754.987 1023 734C1023 713.013 1005.99 696 985 696C964.013 696 947 713.013 947 734C947 754.987 964.013 772 985 772Z" fill="white" stroke="#2563EB" stroke-width="7.99608" stroke-miterlimit="8"/>
<path d="M1037 1324C1065.72 1324 1089 1300.72 1089 1272C1089 1243.28 1065.72 1220 1037 1220C1008.28 1220 985 1243.28 985 1272C985 1300.72 1008.28 1324 1037 1324Z" fill="white" stroke="#B42121" stroke-width="7.99608" stroke-miterlimit="8"/>
<path d="M1248.5 963C1268.11 963 1284 947.106 1284 927.5C1284 907.894 1268.11 892 1248.5 892C1228.89 892 1213 907.894 1213 927.5C1213 947.106 1228.89 963 1248.5 963Z" fill="white" stroke="#2563EB" stroke-width="7.99608" stroke-miterlimit="8"/>
<path d="M838 234C858.987 234 876 216.987 876 196C876 175.013 858.987 158 838 158C817.013 158 800 175.013 800 196C800 216.987 817.013 234 838 234Z" fill="white" stroke="#404040" stroke-width="7.99608" stroke-miterlimit="8"/>
<path d="M944 143C963.882 143 980 126.882 980 107C980 87.1177 963.882 71 944 71C924.118 71 908 87.1177 908 107C908 126.882 924.118 143 944 143Z" fill="white" stroke="#595959" stroke-width="7.99608" stroke-miterlimit="8"/>
<path d="M610 161C636.51 161 658 139.51 658 113C658 86.4903 636.51 65 610 65C583.49 65 562 86.4903 562 113C562 139.51 583.49 161 610 161Z" fill="white" stroke="#595959" stroke-width="7.99608" stroke-miterlimit="8"/>
<path d="M432 248C446.359 248 458 236.359 458 222C458 207.641 446.359 196 432 196C417.641 196 406 207.641 406 222C406 236.359 417.641 248 432 248Z" fill="white" stroke="#7F7F7F" stroke-width="7.99608" stroke-miterlimit="8"/>
<path d="M870 571C890.987 571 908 553.987 908 533C908 512.013 890.987 495 870 495C849.013 495 832 512.013 832 533C832 553.987 849.013 571 870 571Z" fill="white" stroke="#404040" stroke-width="7.99608" stroke-miterlimit="8"/>
<path d="M707 663C724.673 663 739 648.673 739 631C739 613.327 724.673 599 707 599C689.327 599 675 613.327 675 631C675 648.673 689.327 663 707 663Z" fill="white" stroke="#595959" stroke-width="7.99608" stroke-miterlimit="8"/>
<path d="M586 522C599.255 522 610 511.255 610 498C610 484.745 599.255 474 586 474C572.745 474 562 484.745 562 498C562 511.255 572.745 522 586 522Z" fill="white" stroke="#7F7F7F" stroke-width="7.99608" stroke-miterlimit="8"/>
<path d="M476 630C489.255 630 500 619.255 500 606C500 592.745 489.255 582 476 582C462.745 582 452 592.745 452 606C452 619.255 462.745 630 476 630Z" fill="white" stroke="#7F7F7F" stroke-width="7.99608" stroke-miterlimit="8"/>
<path d="M1232.42 917.529L1232.51 919.271C1232.89 918.622 1233.37 918.116 1233.98 917.751C1234.59 917.387 1235.33 917.199 1236.2 917.188C1236.69 917.188 1237.12 917.245 1237.51 917.359C1237.91 917.461 1238.26 917.615 1238.55 917.82C1238.77 917.979 1238.96 918.172 1239.13 918.4C1239.32 918.628 1239.47 918.884 1239.59 919.168C1239.75 918.906 1239.94 918.662 1240.16 918.434C1240.37 918.207 1240.61 918.007 1240.86 917.837C1241.18 917.643 1241.53 917.49 1241.92 917.376C1242.31 917.262 1242.75 917.199 1243.21 917.188C1243.85 917.188 1244.43 917.285 1244.94 917.478C1245.45 917.66 1245.88 917.933 1246.23 918.298C1246.62 918.707 1246.92 919.242 1247.12 919.902C1247.33 920.551 1247.43 921.319 1247.43 922.207V936H1244.43V922.173C1244.43 921.786 1244.38 921.444 1244.29 921.148C1244.2 920.853 1244.07 920.608 1243.9 920.414C1243.71 920.232 1243.49 920.096 1243.21 920.005C1242.95 919.914 1242.64 919.868 1242.29 919.868C1241.92 919.868 1241.59 919.919 1241.32 920.022C1241.05 920.124 1240.82 920.261 1240.64 920.431C1240.45 920.614 1240.31 920.824 1240.21 921.063C1240.11 921.291 1240.04 921.547 1240 921.831C1240 921.888 1240 921.945 1240 922.002C1240 922.047 1240 922.104 1240 922.173V936H1237V922.156C1237 921.769 1236.95 921.427 1236.86 921.131C1236.78 920.835 1236.65 920.591 1236.47 920.397C1236.3 920.215 1236.08 920.084 1235.82 920.005C1235.57 919.914 1235.28 919.868 1234.93 919.868C1234.56 919.868 1234.23 919.914 1233.94 920.005C1233.67 920.084 1233.44 920.204 1233.24 920.363C1233.1 920.488 1232.96 920.631 1232.85 920.79C1232.75 920.949 1232.66 921.12 1232.59 921.302V936H1229.59V917.529H1232.42ZM1253.46 943.46C1253.16 943.46 1252.81 943.426 1252.41 943.358C1252.02 943.289 1251.71 943.232 1251.51 943.187L1252.02 940.609C1252.31 940.632 1252.58 940.649 1252.86 940.66C1253.14 940.683 1253.36 940.694 1253.52 940.694C1253.96 940.694 1254.35 940.575 1254.7 940.336C1255.07 940.097 1255.39 939.812 1255.67 939.482C1255.95 939.152 1256.18 938.811 1256.37 938.458C1256.58 938.105 1256.74 937.815 1256.85 937.588L1258.12 935.129L1250.16 917.529H1253.69L1258.76 929.445L1259.58 931.681L1260.45 929.513L1265.22 917.529H1268.75L1259.38 938.851C1259.16 939.329 1258.88 939.835 1258.54 940.37C1258.21 940.905 1257.81 941.4 1257.33 941.855C1256.85 942.31 1256.29 942.692 1255.66 942.999C1255.02 943.306 1254.29 943.46 1253.46 943.46Z" fill="black"/>
<path d="M997.396 1272.61C997.396 1271.23 997.561 1269.97 997.891 1268.82C998.232 1267.66 998.722 1266.66 999.359 1265.83C999.996 1265 1000.77 1264.35 1001.68 1263.89C1002.59 1263.42 1003.62 1263.19 1004.77 1263.19C1005.51 1263.19 1006.19 1263.27 1006.8 1263.44C1007.43 1263.61 1007.99 1263.87 1008.49 1264.2C1008.76 1264.37 1009.02 1264.57 1009.26 1264.79C1009.51 1265.02 1009.74 1265.27 1009.96 1265.54L1010.11 1263.53H1012.98V1281.61C1012.98 1282.83 1012.79 1283.91 1012.4 1284.85C1012.03 1285.8 1011.5 1286.6 1010.81 1287.26C1010.12 1287.92 1009.29 1288.42 1008.34 1288.76C1007.38 1289.1 1006.32 1289.27 1005.16 1289.27C1004.69 1289.27 1004.14 1289.22 1003.52 1289.1C1002.91 1289 1002.29 1288.82 1001.66 1288.57C1001.03 1288.33 1000.41 1288.01 999.82 1287.6C999.239 1287.19 998.739 1286.68 998.318 1286.08L999.956 1284.19C1000.34 1284.65 1000.74 1285.04 1001.15 1285.36C1001.56 1285.69 1001.98 1285.95 1002.4 1286.15C1002.82 1286.34 1003.24 1286.48 1003.66 1286.56C1004.08 1286.65 1004.5 1286.69 1004.92 1286.69C1005.68 1286.69 1006.35 1286.59 1006.96 1286.37C1007.56 1286.15 1008.08 1285.84 1008.51 1285.41C1008.93 1285 1009.25 1284.49 1009.48 1283.88C1009.71 1283.26 1009.82 1282.56 1009.82 1281.76V1280.17C1009.58 1280.45 1009.33 1280.7 1009.06 1280.92C1008.79 1281.15 1008.51 1281.35 1008.2 1281.52C1007.72 1281.78 1007.19 1281.98 1006.61 1282.12C1006.03 1282.27 1005.41 1282.34 1004.74 1282.34C1003.61 1282.34 1002.59 1282.1 1001.68 1281.62C1000.77 1281.15 1000 1280.49 999.376 1279.64C998.739 1278.8 998.249 1277.81 997.908 1276.67C997.567 1275.52 997.396 1274.29 997.396 1272.97V1272.61ZM1000.55 1272.97C1000.55 1273.87 1000.64 1274.72 1000.83 1275.53C1001.02 1276.34 1001.32 1277.05 1001.73 1277.66C1002.13 1278.28 1002.64 1278.77 1003.27 1279.13C1003.89 1279.48 1004.65 1279.66 1005.52 1279.66C1006.07 1279.66 1006.56 1279.6 1006.99 1279.47C1007.43 1279.34 1007.83 1279.15 1008.18 1278.91C1008.53 1278.67 1008.83 1278.39 1009.11 1278.06C1009.38 1277.73 1009.62 1277.36 1009.82 1276.96V1268.5C1009.62 1268.11 1009.38 1267.76 1009.11 1267.44C1008.83 1267.12 1008.52 1266.84 1008.17 1266.6C1007.81 1266.37 1007.42 1266.2 1006.99 1266.07C1006.56 1265.94 1006.08 1265.87 1005.56 1265.87C1004.67 1265.87 1003.91 1266.05 1003.27 1266.41C1002.64 1266.78 1002.13 1267.27 1001.73 1267.88C1001.32 1268.51 1001.02 1269.23 1000.83 1270.05C1000.64 1270.86 1000.55 1271.71 1000.55 1272.61V1272.97ZM1018.09 1272.59C1018.09 1271.26 1018.28 1270.03 1018.67 1268.89C1019.05 1267.74 1019.61 1266.74 1020.34 1265.9C1021.06 1265.06 1021.93 1264.4 1022.97 1263.92C1024 1263.43 1025.17 1263.19 1026.47 1263.19C1027.78 1263.19 1028.95 1263.43 1029.98 1263.92C1031.03 1264.4 1031.92 1265.06 1032.65 1265.9C1033.36 1266.74 1033.92 1267.74 1034.3 1268.89C1034.69 1270.03 1034.88 1271.26 1034.88 1272.59V1272.97C1034.88 1274.3 1034.69 1275.54 1034.3 1276.67C1033.92 1277.81 1033.36 1278.8 1032.65 1279.64C1031.92 1280.49 1031.04 1281.15 1030 1281.62C1028.97 1282.1 1027.8 1282.34 1026.5 1282.34C1025.19 1282.34 1024.01 1282.1 1022.97 1281.62C1021.93 1281.15 1021.06 1280.49 1020.34 1279.64C1019.61 1278.8 1019.05 1277.81 1018.67 1276.67C1018.28 1275.54 1018.09 1274.3 1018.09 1272.97V1272.59ZM1021.24 1272.97C1021.24 1273.88 1021.35 1274.75 1021.57 1275.58C1021.78 1276.4 1022.11 1277.12 1022.56 1277.75C1022.99 1278.38 1023.54 1278.87 1024.2 1279.23C1024.86 1279.6 1025.63 1279.78 1026.5 1279.78C1027.37 1279.78 1028.12 1279.6 1028.77 1279.23C1029.43 1278.87 1029.98 1278.38 1030.43 1277.75C1030.86 1277.12 1031.18 1276.4 1031.4 1275.58C1031.62 1274.75 1031.73 1273.88 1031.73 1272.97V1272.59C1031.73 1271.69 1031.61 1270.84 1031.38 1270.02C1031.17 1269.19 1030.84 1268.46 1030.41 1267.83C1029.97 1267.21 1029.41 1266.71 1028.75 1266.35C1028.11 1265.97 1027.34 1265.78 1026.47 1265.78C1025.59 1265.78 1024.83 1265.97 1024.18 1266.35C1023.53 1266.71 1022.99 1267.21 1022.56 1267.83C1022.11 1268.46 1021.78 1269.19 1021.57 1270.02C1021.35 1270.84 1021.24 1271.69 1021.24 1272.59V1272.97ZM1052.11 1282C1051.98 1281.76 1051.88 1281.47 1051.8 1281.11C1051.73 1280.75 1051.68 1280.37 1051.65 1279.99C1051.33 1280.3 1050.97 1280.61 1050.57 1280.89C1050.18 1281.17 1049.76 1281.43 1049.29 1281.64C1048.81 1281.86 1048.31 1282.03 1047.77 1282.15C1047.24 1282.28 1046.67 1282.34 1046.06 1282.34C1045.09 1282.34 1044.2 1282.2 1043.4 1281.91C1042.62 1281.63 1041.95 1281.24 1041.4 1280.75C1040.85 1280.28 1040.41 1279.71 1040.11 1279.05C1039.81 1278.38 1039.66 1277.65 1039.66 1276.88C1039.66 1275.87 1039.86 1274.98 1040.26 1274.22C1040.67 1273.45 1041.24 1272.82 1041.98 1272.3C1042.72 1271.8 1043.61 1271.43 1044.65 1271.18C1045.69 1270.93 1046.86 1270.8 1048.15 1270.8H1051.6V1269.35C1051.6 1268.79 1051.49 1268.29 1051.29 1267.85C1051.08 1267.4 1050.79 1267.02 1050.42 1266.7C1050.04 1266.4 1049.58 1266.16 1049.03 1265.99C1048.5 1265.82 1047.9 1265.73 1047.23 1265.73C1046.6 1265.73 1046.04 1265.81 1045.54 1265.97C1045.05 1266.13 1044.63 1266.34 1044.29 1266.6C1043.95 1266.86 1043.68 1267.18 1043.49 1267.54C1043.3 1267.89 1043.21 1268.26 1043.21 1268.65H1040.04C1040.05 1267.98 1040.22 1267.32 1040.55 1266.67C1040.89 1266.02 1041.38 1265.44 1042.02 1264.91C1042.64 1264.4 1043.41 1263.98 1044.31 1263.67C1045.22 1263.35 1046.25 1263.19 1047.4 1263.19C1048.44 1263.19 1049.42 1263.32 1050.32 1263.58C1051.21 1263.83 1051.99 1264.21 1052.65 1264.72C1053.3 1265.25 1053.81 1265.9 1054.19 1266.67C1054.57 1267.44 1054.75 1268.35 1054.75 1269.38V1277.97C1054.75 1278.59 1054.81 1279.24 1054.92 1279.93C1055.04 1280.62 1055.2 1281.21 1055.4 1281.73V1282H1052.11ZM1046.53 1279.59C1047.14 1279.59 1047.71 1279.51 1048.25 1279.35C1048.78 1279.19 1049.27 1278.98 1049.72 1278.72C1050.15 1278.46 1050.53 1278.16 1050.84 1277.83C1051.16 1277.49 1051.41 1277.14 1051.6 1276.78V1273.04H1048.66C1047.57 1273.04 1046.61 1273.13 1045.79 1273.33C1044.98 1273.51 1044.34 1273.79 1043.86 1274.18C1043.52 1274.45 1043.26 1274.78 1043.08 1275.15C1042.91 1275.53 1042.82 1275.96 1042.82 1276.43C1042.82 1276.89 1042.9 1277.31 1043.04 1277.7C1043.2 1278.09 1043.44 1278.42 1043.74 1278.69C1044.05 1278.97 1044.44 1279.19 1044.9 1279.35C1045.37 1279.51 1045.91 1279.59 1046.53 1279.59ZM1061.46 1255.78H1070.9V1279.27H1076.93V1282H1061.46V1279.27H1067.74V1258.53H1061.46V1255.78Z" fill="black"/>
<path d="M631.326 920.921C631.603 920.921 631.871 920.877 632.131 920.788C632.397 920.7 632.632 920.575 632.837 920.415C633.042 920.26 633.205 920.077 633.327 919.867C633.454 919.651 633.52 919.418 633.526 919.169H634.979C634.973 919.568 634.868 919.95 634.663 920.315C634.464 920.675 634.195 920.99 633.858 921.261C633.52 921.538 633.133 921.759 632.696 921.925C632.259 922.086 631.802 922.166 631.326 922.166C630.646 922.166 630.051 922.044 629.542 921.801C629.032 921.557 628.609 921.228 628.271 920.813C627.928 920.403 627.671 919.93 627.5 919.394C627.328 918.851 627.242 918.281 627.242 917.684V917.335C627.242 916.743 627.328 916.176 627.5 915.633C627.671 915.091 627.928 914.612 628.271 914.197C628.609 913.788 629.032 913.461 629.542 913.218C630.051 912.974 630.646 912.853 631.326 912.853C631.857 912.853 632.344 912.938 632.787 913.11C633.235 913.276 633.623 913.503 633.949 913.791C634.27 914.084 634.522 914.43 634.705 914.828C634.887 915.227 634.979 915.653 634.979 916.106H633.526C633.52 915.835 633.459 915.581 633.343 915.343C633.233 915.099 633.08 914.886 632.887 914.704C632.693 914.521 632.461 914.377 632.189 914.272C631.924 914.167 631.636 914.114 631.326 914.114C630.85 914.114 630.449 914.211 630.123 914.405C629.802 914.593 629.542 914.839 629.342 915.144C629.143 915.453 628.999 915.799 628.911 916.181C628.828 916.563 628.786 916.948 628.786 917.335V917.684C628.786 918.076 628.828 918.467 628.911 918.854C628.999 919.236 629.143 919.579 629.342 919.883C629.536 920.193 629.793 920.445 630.114 920.639C630.441 920.827 630.845 920.921 631.326 920.921ZM637.278 917.426C637.278 916.779 637.372 916.178 637.56 915.625C637.748 915.066 638.019 914.582 638.374 914.172C638.722 913.763 639.148 913.442 639.652 913.209C640.155 912.972 640.723 912.853 641.354 912.853C641.99 912.853 642.56 912.972 643.063 913.209C643.573 913.442 644.004 913.763 644.358 914.172C644.707 914.582 644.975 915.066 645.164 915.625C645.352 916.178 645.446 916.779 645.446 917.426V917.609C645.446 918.256 645.352 918.857 645.164 919.41C644.975 919.964 644.707 920.445 644.358 920.854C644.004 921.264 643.575 921.585 643.072 921.817C642.568 922.05 642.001 922.166 641.37 922.166C640.734 922.166 640.161 922.05 639.652 921.817C639.148 921.585 638.722 921.264 638.374 920.854C638.019 920.445 637.748 919.964 637.56 919.41C637.372 918.857 637.278 918.256 637.278 917.609V917.426ZM638.813 917.609C638.813 918.052 638.866 918.475 638.971 918.879C639.076 919.277 639.237 919.629 639.453 919.933C639.663 920.237 639.929 920.478 640.25 920.655C640.57 920.832 640.944 920.921 641.37 920.921C641.791 920.921 642.159 920.832 642.474 920.655C642.795 920.478 643.063 920.237 643.279 919.933C643.49 919.629 643.647 919.277 643.752 918.879C643.858 918.475 643.91 918.052 643.91 917.609V917.426C643.91 916.989 643.855 916.571 643.744 916.173C643.639 915.769 643.481 915.415 643.271 915.11C643.055 914.806 642.787 914.565 642.466 914.388C642.15 914.206 641.78 914.114 641.354 914.114C640.927 914.114 640.557 914.206 640.241 914.388C639.926 914.565 639.663 914.806 639.453 915.11C639.237 915.415 639.076 915.769 638.971 916.173C638.866 916.571 638.813 916.989 638.813 917.426V917.609ZM647.919 922V913.019H649.297L649.405 914.347C649.538 914.159 649.682 913.987 649.837 913.832C649.997 913.672 650.166 913.533 650.343 913.417C650.609 913.24 650.897 913.104 651.207 913.01C651.522 912.911 651.854 912.858 652.203 912.853C652.673 912.853 653.099 912.919 653.481 913.052C653.868 913.185 654.198 913.392 654.469 913.674C654.74 913.957 654.947 914.316 655.091 914.753C655.241 915.185 655.315 915.7 655.315 916.297V922H653.78V916.331C653.78 915.932 653.736 915.595 653.647 915.318C653.558 915.041 653.428 914.817 653.257 914.646C653.08 914.474 652.864 914.349 652.609 914.272C652.36 914.194 652.073 914.156 651.746 914.156C651.464 914.156 651.201 914.197 650.958 914.28C650.714 914.358 650.49 914.466 650.285 914.604C650.119 914.726 649.964 914.867 649.82 915.027C649.682 915.188 649.56 915.365 649.455 915.559V922H647.919ZM660.42 922V914.206H657.947V913.019H660.42V912.388C660.42 911.812 660.503 911.309 660.669 910.877C660.841 910.44 661.082 910.075 661.392 909.781C661.696 909.488 662.064 909.267 662.496 909.117C662.927 908.968 663.409 908.893 663.94 908.893C664.161 908.893 664.38 908.907 664.596 908.935C664.812 908.957 665.025 908.987 665.235 909.026C665.373 909.054 665.512 909.084 665.65 909.117C665.788 909.145 665.929 909.178 666.073 909.217L665.891 910.487C665.664 910.409 665.398 910.343 665.094 910.288C664.795 910.227 664.474 910.196 664.131 910.196C663.782 910.196 663.472 910.241 663.201 910.329C662.936 910.412 662.714 910.539 662.537 910.711C662.349 910.888 662.205 911.118 662.105 911.4C662.011 911.682 661.964 912.011 661.964 912.388V913.019H665.426V914.206H661.964V922H660.42ZM674.258 922L674.167 920.763C673.868 921.206 673.494 921.552 673.046 921.801C672.598 922.044 672.08 922.166 671.494 922.166C671.023 922.166 670.597 922.094 670.215 921.95C669.833 921.801 669.507 921.571 669.236 921.261C668.965 920.951 668.754 920.558 668.605 920.083C668.461 919.601 668.389 919.026 668.389 918.356V913.019H669.925V918.373C669.925 918.86 669.964 919.264 670.041 919.584C670.118 919.905 670.235 920.16 670.39 920.348C670.545 920.542 670.733 920.677 670.954 920.755C671.181 920.832 671.441 920.871 671.734 920.871C672.077 920.871 672.385 920.832 672.656 920.755C672.927 920.672 673.162 920.558 673.361 920.415C673.527 920.298 673.671 920.16 673.793 920C673.92 919.833 674.025 919.654 674.108 919.46V913.019H675.652V922H674.258ZM684.518 919.618C684.518 919.435 684.482 919.272 684.41 919.128C684.338 918.979 684.216 918.843 684.044 918.721C683.873 918.599 683.646 918.489 683.364 918.389C683.082 918.284 682.73 918.19 682.31 918.107C681.795 918.002 681.325 917.875 680.898 917.725C680.478 917.576 680.118 917.396 679.819 917.186C679.515 916.981 679.28 916.74 679.114 916.463C678.948 916.181 678.865 915.855 678.865 915.484C678.865 915.119 678.951 914.778 679.122 914.463C679.294 914.142 679.534 913.862 679.844 913.625C680.154 913.387 680.522 913.198 680.948 913.06C681.38 912.922 681.853 912.853 682.368 912.853C682.921 912.853 683.419 912.924 683.862 913.068C684.305 913.212 684.681 913.411 684.991 913.666C685.301 913.921 685.539 914.219 685.705 914.562C685.876 914.9 685.962 915.265 685.962 915.658H684.426C684.426 915.465 684.376 915.276 684.277 915.094C684.177 914.906 684.039 914.74 683.862 914.596C683.685 914.452 683.469 914.336 683.214 914.247C682.965 914.159 682.683 914.114 682.368 914.114C682.041 914.114 681.753 914.15 681.504 914.222C681.261 914.294 681.059 914.391 680.898 914.513C680.732 914.634 680.608 914.776 680.525 914.936C680.442 915.097 680.4 915.263 680.4 915.434C680.4 915.611 680.434 915.769 680.5 915.907C680.566 916.046 680.683 916.17 680.849 916.281C681.009 916.391 681.225 916.491 681.496 916.58C681.773 916.668 682.121 916.754 682.542 916.837C683.095 916.953 683.591 917.089 684.028 917.244C684.465 917.393 684.833 917.573 685.132 917.783C685.431 917.999 685.658 918.248 685.812 918.53C685.973 918.812 686.053 919.139 686.053 919.51C686.053 919.908 685.962 920.271 685.779 920.597C685.602 920.924 685.353 921.203 685.032 921.436C684.711 921.668 684.327 921.848 683.878 921.975C683.43 922.102 682.94 922.166 682.409 922.166C681.8 922.166 681.258 922.086 680.782 921.925C680.306 921.759 679.905 921.541 679.579 921.27C679.247 921.004 678.992 920.694 678.815 920.34C678.643 919.986 678.558 919.618 678.558 919.236H680.093C680.115 919.551 680.198 919.817 680.342 920.033C680.492 920.249 680.677 920.423 680.898 920.556C681.114 920.688 681.355 920.783 681.621 920.838C681.886 920.893 682.149 920.921 682.409 920.921C682.819 920.921 683.176 920.874 683.48 920.78C683.784 920.68 684.022 920.545 684.194 920.373C684.299 920.268 684.379 920.152 684.435 920.024C684.49 919.897 684.518 919.762 684.518 919.618ZM689 913.019H693.59V920.672H696.521V922H689V920.672H692.055V914.355H689V913.019ZM691.855 910.661C691.855 910.528 691.875 910.404 691.914 910.288C691.958 910.171 692.024 910.072 692.113 909.989C692.185 909.917 692.276 909.861 692.387 909.823C692.503 909.778 692.633 909.756 692.777 909.756C692.921 909.756 693.048 909.778 693.159 909.823C693.269 909.861 693.361 909.917 693.433 909.989C693.521 910.066 693.588 910.163 693.632 910.279C693.676 910.396 693.698 910.523 693.698 910.661C693.698 910.91 693.621 911.118 693.466 911.284C693.311 911.45 693.081 911.533 692.777 911.533C692.467 911.533 692.235 911.45 692.08 911.284C691.93 911.118 691.855 910.91 691.855 910.661ZM698.538 917.426C698.538 916.779 698.632 916.178 698.82 915.625C699.008 915.066 699.279 914.582 699.633 914.172C699.982 913.763 700.408 913.442 700.912 913.209C701.415 912.972 701.982 912.853 702.613 912.853C703.25 912.853 703.82 912.972 704.323 913.209C704.832 913.442 705.264 913.763 705.618 914.172C705.967 914.582 706.235 915.066 706.423 915.625C706.611 916.178 706.706 916.779 706.706 917.426V917.609C706.706 918.256 706.611 918.857 706.423 919.41C706.235 919.964 705.967 920.445 705.618 920.854C705.264 921.264 704.835 921.585 704.332 921.817C703.828 922.05 703.261 922.166 702.63 922.166C701.993 922.166 701.421 922.05 700.912 921.817C700.408 921.585 699.982 921.264 699.633 920.854C699.279 920.445 699.008 919.964 698.82 919.41C698.632 918.857 698.538 918.256 698.538 917.609V917.426ZM700.073 917.609C700.073 918.052 700.126 918.475 700.231 918.879C700.336 919.277 700.497 919.629 700.712 919.933C700.923 920.237 701.188 920.478 701.509 920.655C701.83 920.832 702.204 920.921 702.63 920.921C703.05 920.921 703.418 920.832 703.734 920.655C704.055 920.478 704.323 920.237 704.539 919.933C704.749 919.629 704.907 919.277 705.012 918.879C705.117 918.475 705.17 918.052 705.17 917.609V917.426C705.17 916.989 705.115 916.571 705.004 916.173C704.899 915.769 704.741 915.415 704.531 915.11C704.315 914.806 704.047 914.565 703.726 914.388C703.41 914.206 703.039 914.114 702.613 914.114C702.187 914.114 701.816 914.206 701.501 914.388C701.186 914.565 700.923 914.806 700.712 915.11C700.497 915.415 700.336 915.769 700.231 916.173C700.126 916.571 700.073 916.989 700.073 917.426V917.609ZM709.179 922V913.019H710.557L710.665 914.347C710.798 914.159 710.942 913.987 711.097 913.832C711.257 913.672 711.426 913.533 711.603 913.417C711.869 913.24 712.156 913.104 712.466 913.01C712.782 912.911 713.114 912.858 713.462 912.853C713.933 912.853 714.359 912.919 714.741 913.052C715.128 913.185 715.457 913.392 715.729 913.674C716 913.957 716.207 914.316 716.351 914.753C716.5 915.185 716.575 915.7 716.575 916.297V922H715.04V916.331C715.04 915.932 714.995 915.595 714.907 915.318C714.818 915.041 714.688 914.817 714.517 914.646C714.34 914.474 714.124 914.349 713.869 914.272C713.62 914.194 713.332 914.156 713.006 914.156C712.724 914.156 712.461 914.197 712.217 914.28C711.974 914.358 711.75 914.466 711.545 914.604C711.379 914.726 711.224 914.867 711.08 915.027C710.942 915.188 710.82 915.365 710.715 915.559V922H709.179Z" fill="black"/>
<path d="M974.45 723.057V727.529H981.483V729.971H974.45V740.008C974.45 740.725 974.541 741.317 974.723 741.784C974.905 742.25 975.156 742.62 975.475 742.893C975.793 743.178 976.157 743.377 976.567 743.491C976.988 743.604 977.432 743.661 977.899 743.661C978.24 743.661 978.593 743.644 978.957 743.61C979.321 743.565 979.68 743.513 980.032 743.456C980.374 743.4 980.692 743.343 980.988 743.286C981.296 743.217 981.546 743.161 981.739 743.115L982.183 745.351C981.922 745.511 981.603 745.653 981.227 745.778C980.852 745.892 980.442 745.989 979.998 746.068C979.554 746.159 979.082 746.228 978.581 746.273C978.092 746.319 977.603 746.341 977.113 746.341C976.294 746.341 975.526 746.228 974.809 746C974.103 745.761 973.489 745.385 972.965 744.873C972.442 744.373 972.026 743.724 971.719 742.927C971.423 742.119 971.275 741.146 971.275 740.008V729.971H966.427V727.529H971.275V723.057H974.45ZM987.083 736.594C987.083 735.262 987.276 734.028 987.663 732.89C988.05 731.74 988.608 730.744 989.336 729.902C990.053 729.06 990.929 728.4 991.965 727.922C993.001 727.433 994.167 727.188 995.464 727.188C996.773 727.188 997.945 727.433 998.981 727.922C1000.03 728.4 1000.92 729.06 1001.64 729.902C1002.36 730.744 1002.91 731.74 1003.3 732.89C1003.69 734.028 1003.88 735.262 1003.88 736.594V736.97C1003.88 738.301 1003.69 739.536 1003.3 740.674C1002.91 741.812 1002.36 742.802 1001.64 743.644C1000.92 744.486 1000.03 745.146 998.998 745.624C997.962 746.102 996.796 746.341 995.499 746.341C994.19 746.341 993.012 746.102 991.965 745.624C990.929 745.146 990.053 744.486 989.336 743.644C988.608 742.802 988.05 741.812 987.663 740.674C987.276 739.536 987.083 738.301 987.083 736.97V736.594ZM990.241 736.97C990.241 737.88 990.349 738.751 990.565 739.581C990.781 740.401 991.111 741.123 991.555 741.749C991.988 742.375 992.534 742.87 993.194 743.235C993.854 743.599 994.622 743.781 995.499 743.781C996.363 743.781 997.12 743.599 997.769 743.235C998.429 742.87 998.981 742.375 999.425 741.749C999.857 741.123 1000.18 740.401 1000.4 739.581C1000.61 738.751 1000.72 737.88 1000.72 736.97V736.594C1000.72 735.695 1000.61 734.836 1000.38 734.016C1000.16 733.186 999.84 732.457 999.408 731.831C998.964 731.205 998.412 730.71 997.752 730.346C997.103 729.971 996.341 729.783 995.464 729.783C994.588 729.783 993.826 729.971 993.177 730.346C992.528 730.71 991.988 731.205 991.555 731.831C991.111 732.457 990.781 733.186 990.565 734.016C990.349 734.836 990.241 735.695 990.241 736.594V736.97Z" fill="black"/>
<path d="M843.199 545.875V528.32H845.18L845.285 529.703C845.457 529.484 845.645 529.289 845.848 529.117C846.051 528.938 846.27 528.785 846.504 528.66C846.832 528.473 847.195 528.332 847.594 528.238C848 528.137 848.434 528.086 848.895 528.086C849.707 528.086 850.426 528.246 851.051 528.566C851.676 528.887 852.199 529.332 852.621 529.902C853.043 530.473 853.363 531.156 853.582 531.953C853.801 532.742 853.91 533.609 853.91 534.555V534.801C853.91 535.707 853.801 536.555 853.582 537.344C853.363 538.125 853.043 538.805 852.621 539.383C852.199 539.961 851.676 540.414 851.051 540.742C850.434 541.07 849.727 541.234 848.93 541.234C848.445 541.234 847.992 541.184 847.57 541.082C847.156 540.98 846.781 540.836 846.445 540.648C846.242 540.531 846.051 540.402 845.871 540.262C845.691 540.113 845.523 539.953 845.367 539.781V545.875H843.199ZM851.742 534.555C851.742 533.938 851.672 533.352 851.531 532.797C851.398 532.234 851.191 531.738 850.91 531.309C850.621 530.887 850.258 530.551 849.82 530.301C849.383 530.051 848.859 529.926 848.25 529.926C847.914 529.926 847.602 529.965 847.312 530.043C847.031 530.121 846.777 530.234 846.551 530.383C846.301 530.531 846.078 530.715 845.883 530.934C845.688 531.152 845.516 531.395 845.367 531.66V537.766C845.5 538 845.652 538.219 845.824 538.422C845.996 538.625 846.191 538.797 846.41 538.938C846.66 539.102 846.938 539.23 847.242 539.324C847.555 539.418 847.898 539.465 848.273 539.465C848.875 539.465 849.395 539.34 849.832 539.09C850.27 538.832 850.629 538.488 850.91 538.059C851.191 537.629 851.398 537.133 851.531 536.57C851.672 536.008 851.742 535.418 851.742 534.801V534.555ZM865.957 541C865.871 540.836 865.801 540.633 865.746 540.391C865.699 540.141 865.664 539.883 865.641 539.617C865.422 539.836 865.176 540.043 864.902 540.238C864.637 540.434 864.344 540.605 864.023 540.754C863.695 540.902 863.348 541.02 862.98 541.105C862.613 541.191 862.223 541.234 861.809 541.234C861.137 541.234 860.527 541.137 859.98 540.941C859.441 540.746 858.984 540.48 858.609 540.145C858.227 539.816 857.93 539.426 857.719 538.973C857.516 538.512 857.414 538.016 857.414 537.484C857.414 536.789 857.551 536.18 857.824 535.656C858.105 535.133 858.5 534.695 859.008 534.344C859.516 534 860.125 533.742 860.836 533.57C861.555 533.398 862.355 533.312 863.238 533.312H865.605V532.316C865.605 531.934 865.535 531.59 865.395 531.285C865.254 530.98 865.055 530.719 864.797 530.5C864.539 530.289 864.223 530.125 863.848 530.008C863.48 529.891 863.066 529.832 862.605 529.832C862.176 529.832 861.789 529.887 861.445 529.996C861.109 530.105 860.824 530.25 860.59 530.43C860.355 530.609 860.172 530.824 860.039 531.074C859.914 531.316 859.852 531.57 859.852 531.836H857.672C857.68 531.375 857.797 530.922 858.023 530.477C858.258 530.031 858.594 529.629 859.031 529.27C859.461 528.918 859.984 528.633 860.602 528.414C861.227 528.195 861.934 528.086 862.723 528.086C863.441 528.086 864.109 528.176 864.727 528.355C865.344 528.527 865.879 528.789 866.332 529.141C866.777 529.5 867.129 529.945 867.387 530.477C867.645 531.008 867.773 531.629 867.773 532.34V538.234C867.773 538.656 867.812 539.105 867.891 539.582C867.969 540.051 868.078 540.461 868.219 540.812V541H865.957ZM862.125 539.348C862.547 539.348 862.941 539.293 863.309 539.184C863.676 539.074 864.012 538.93 864.316 538.75C864.613 538.57 864.871 538.367 865.09 538.141C865.309 537.906 865.48 537.664 865.605 537.414V534.848H863.59C862.84 534.848 862.184 534.914 861.621 535.047C861.066 535.172 860.625 535.367 860.297 535.633C860.062 535.82 859.883 536.043 859.758 536.301C859.641 536.559 859.582 536.852 859.582 537.18C859.582 537.492 859.633 537.781 859.734 538.047C859.844 538.312 860.004 538.539 860.215 538.727C860.426 538.922 860.691 539.074 861.012 539.184C861.332 539.293 861.703 539.348 862.125 539.348ZM877.172 525.25V528.32H882V529.996H877.172V536.887C877.172 537.379 877.234 537.785 877.359 538.105C877.484 538.426 877.656 538.68 877.875 538.867C878.094 539.062 878.344 539.199 878.625 539.277C878.914 539.355 879.219 539.395 879.539 539.395C879.773 539.395 880.016 539.383 880.266 539.359C880.516 539.328 880.762 539.293 881.004 539.254C881.238 539.215 881.457 539.176 881.66 539.137C881.871 539.09 882.043 539.051 882.176 539.02L882.48 540.555C882.301 540.664 882.082 540.762 881.824 540.848C881.566 540.926 881.285 540.992 880.98 541.047C880.676 541.109 880.352 541.156 880.008 541.188C879.672 541.219 879.336 541.234 879 541.234C878.438 541.234 877.91 541.156 877.418 541C876.934 540.836 876.512 540.578 876.152 540.227C875.793 539.883 875.508 539.438 875.297 538.891C875.094 538.336 874.992 537.668 874.992 536.887V529.996H871.664V528.32H874.992V525.25H877.172ZM888.621 530.207C888.793 529.949 888.984 529.715 889.195 529.504C889.406 529.285 889.629 529.094 889.863 528.93C890.238 528.656 890.648 528.449 891.094 528.309C891.547 528.168 892.027 528.094 892.535 528.086C893.199 528.086 893.801 528.184 894.34 528.379C894.887 528.566 895.352 528.863 895.734 529.27C896.117 529.676 896.41 530.191 896.613 530.816C896.824 531.434 896.93 532.168 896.93 533.02V541H894.762V532.996C894.762 532.496 894.703 532.059 894.586 531.684C894.469 531.301 894.297 530.984 894.07 530.734C893.828 530.461 893.523 530.258 893.156 530.125C892.789 529.984 892.367 529.918 891.891 529.926C891.5 529.926 891.129 529.98 890.777 530.09C890.426 530.199 890.102 530.355 889.805 530.559C889.57 530.715 889.352 530.898 889.148 531.109C888.953 531.312 888.777 531.539 888.621 531.789V541H886.453V523H888.621V530.207Z" fill="black"/>
<path d="M480 393.3H500" stroke="black" stroke-width="7.99608" stroke-miterlimit="8" stroke-linecap="round"/>
<path d="M440 393.3H446.678" stroke="black" stroke-width="7.99608" stroke-miterlimit="8" stroke-linecap="round"/>
<path d="M533 393.3H539.678" stroke="black" stroke-width="7.99608" stroke-miterlimit="8" stroke-linecap="round"/>
<path d="M490 393.284C490 354.284 490.096 351.378 490 332.284C489.904 313.189 528.913 313.288 529 332.284C529.087 351.279 529 354.284 529 393.284" stroke="black" stroke-width="7.99608" stroke-miterlimit="8" stroke-linecap="square"/>
<path d="M451 393.284C451 354.284 451.096 351.378 451 332.284C450.904 313.189 489.913 313.288 490 332.284C490.087 351.279 490 354.284 490 393.284" stroke="black" stroke-width="7.99608" stroke-miterlimit="8" stroke-linecap="square"/>
<path d="M627 319C627 353.859 627 361.254 627 377.099C627 392.944 607 394 597.5 394C588 394 567 392.944 567 377.099C567 361.254 567 353.859 567 319" stroke="black" stroke-width="7.99608" stroke-miterlimit="8" stroke-linecap="square" stroke-linejoin="round"/>
<path d="M716 393H656" stroke="black" stroke-width="7.99608" stroke-miterlimit="8" stroke-linecap="round"/>
<path d="M677 315V393.541" stroke="black" stroke-width="7.99608" stroke-miterlimit="8"/>
<path d="M673 319H656" stroke="black" stroke-width="7.99608" stroke-miterlimit="8" stroke-linecap="round"/>
<path d="M732 326.041C718.033 309.339 701.667 320.672 678 343.737" stroke="black" stroke-width="7.99608" stroke-miterlimit="8" stroke-linecap="round"/>
<path fill-rule="evenodd" clip-rule="evenodd" d="M758 355.5C758 334.237 775.237 317 796.5 317C817.763 317 835 334.237 835 355.5C835 376.763 817.763 394 796.5 394C775.237 394 758 376.763 758 355.5Z" fill="white" stroke="black" stroke-width="7.99608" stroke-miterlimit="8"/>
<path d="M856 288.763C873.182 283.737 906.41 283.869 906.944 303.842C907.054 316.679 906.947 388.992 907 389" stroke="black" stroke-width="7.99608" stroke-miterlimit="8" stroke-linecap="round"/>
<path d="M866 393H928.332" stroke="black" stroke-width="7.99608" stroke-miterlimit="8" stroke-linecap="round"/>
<path d="M866 321H928.332" stroke="black" stroke-width="7.99608" stroke-miterlimit="8" stroke-linecap="round"/>
<path d="M947 265V416.107" stroke="black" stroke-width="7.99608" stroke-miterlimit="8" stroke-linecap="round"/>
<defs>
<linearGradient id="paint0_linear_2_196" x1="1162.5" y1="1224.77" x2="1162.5" y2="909.396" gradientUnits="userSpaceOnUse">
<stop offset="0.155" stop-color="#2563EB"/>
</linearGradient>
<linearGradient id="paint1_linear_2_196" x1="1095" y1="898.501" x2="1095" y2="724.275" gradientUnits="userSpaceOnUse">
<stop offset="0.155" stop-color="#2563EB"/>
</linearGradient>
<linearGradient id="paint2_linear_2_196" x1="860" y1="886.089" x2="860" y2="722.89" gradientUnits="userSpaceOnUse">
<stop stop-color="#404040"/>
<stop offset="0.19" stop-color="#404040"/>
<stop offset="0.66" stop-color="#335296"/>
<stop offset="0.9" stop-color="#2563EB"/>
</linearGradient>
<linearGradient id="paint3_linear_2_196" x1="914" y1="691.295" x2="914" y2="522.583" gradientUnits="userSpaceOnUse">
<stop offset="0.155" stop-color="#2563EB"/>
<stop offset="0.4" stop-color="#335296"/>
<stop offset="0.8" stop-color="#404040"/>
<stop offset="1" stop-color="#404040"/>
</linearGradient>
<linearGradient id="paint4_linear_2_196" x1="817" y1="192.397" x2="817" y2="359.603" gradientUnits="userSpaceOnUse">
<stop stop-color="#404040"/>
<stop offset="0.2" stop-color="#404040"/>
<stop offset="0.8"/>
<stop offset="1"/>
</linearGradient>
<linearGradient id="paint5_linear_2_196" x1="891" y1="200.044" x2="891" y2="102.956" gradientUnits="userSpaceOnUse">
<stop stop-color="#404040"/>
<stop offset="0.3" stop-color="#404040"/>
<stop offset="0.7" stop-color="#595959"/>
<stop offset="1" stop-color="#595959"/>
</linearGradient>
<linearGradient id="paint6_linear_2_196" x1="724" y1="109.066" x2="724" y2="199.934" gradientUnits="userSpaceOnUse">
<stop stop-color="#595959"/>
<stop offset="0.2" stop-color="#595959"/>
<stop offset="0.8" stop-color="#404040"/>
<stop offset="1" stop-color="#404040"/>
</linearGradient>
<linearGradient id="paint7_linear_2_196" x1="521" y1="109.022" x2="521" y2="225.978" gradientUnits="userSpaceOnUse">
<stop stop-color="#595959"/>
<stop offset="0.2" stop-color="#595959"/>
<stop offset="0.8" stop-color="#7F7F7F"/>
<stop offset="1" stop-color="#7F7F7F"/>
</linearGradient>
<linearGradient id="paint8_linear_2_196" x1="833" y1="351.464" x2="833" y2="537.536" gradientUnits="userSpaceOnUse">
<stop/>
<stop offset="0.3"/>
<stop offset="0.7" stop-color="#404040"/>
<stop offset="1" stop-color="#404040"/>
</linearGradient>
<linearGradient id="paint9_linear_2_196" x1="788.5" y1="635.032" x2="788.5" y2="526.968" gradientUnits="userSpaceOnUse">
<stop stop-color="#595959"/>
<stop offset="0.2" stop-color="#595959"/>
<stop offset="0.8" stop-color="#404040"/>
<stop offset="1" stop-color="#404040"/>
</linearGradient>
<linearGradient id="paint10_linear_2_196" x1="646.5" y1="493.994" x2="646.5" y2="635.006" gradientUnits="userSpaceOnUse">
<stop stop-color="#7F7F7F"/>
<stop offset="0.2" stop-color="#7F7F7F"/>
<stop offset="0.8" stop-color="#595959"/>
<stop offset="1" stop-color="#595959"/>
</linearGradient>
<linearGradient id="paint11_linear_2_196" x1="591" y1="635.032" x2="591" y2="601.968" gradientUnits="userSpaceOnUse">
<stop stop-color="#595959"/>
<stop offset="0.2" stop-color="#595959"/>
<stop offset="0.8" stop-color="#7F7F7F"/>
<stop offset="1" stop-color="#7F7F7F"/>
</linearGradient>
</defs>
</svg>
