<svg width="1483" height="1377" viewBox="0 0 1483 1377" fill="none" xmlns="http://www.w3.org/2000/svg">
<path d="M1128.09 1198.26L1121.79 1191L1114.78 1219.26L1137.34 1200.86L1128.09 1198.26Z" fill="#2563EB"/>
<path d="M1298.42 924.069C1299.56 922.18 1298.96 919.722 1297.07 918.579C1295.18 917.436 1292.72 918.041 1291.58 919.931L1298.42 924.069ZM1291.58 919.931L1118.58 1205.93L1125.42 1210.07L1298.42 924.069L1291.58 919.931Z" fill="url(#paint0_linear_3_201)"/>
<path d="M1243.63 882.083L1236 887.933L1263.79 896.634L1246.78 873L1243.63 882.083Z" fill="#2563EB"/>
<path d="M1028.67 732.247C1026.87 730.959 1026.46 728.461 1027.75 726.668C1029.04 724.874 1031.54 724.465 1033.33 725.753L1028.67 732.247ZM1033.33 725.753L1253.33 883.753L1248.67 890.247L1028.67 732.247L1033.33 725.753Z" fill="url(#paint1_linear_3_201)"/>
<path d="M1033.04 730.44C1034.94 729.316 1035.57 726.863 1034.44 724.963C1033.32 723.063 1030.86 722.435 1028.96 723.56L1033.04 730.44ZM1028.96 723.56L778.963 871.56L783.037 878.44L1033.04 730.44L1028.96 723.56Z" fill="url(#paint2_linear_3_201)"/>
<path d="M788.976 870.279L786.46 861L767.862 883.405L796.184 876.64L788.976 870.279Z" fill="#404040"/>
<path d="M912.534 528.993C911.433 527.079 912.093 524.635 914.007 523.534C915.921 522.433 918.365 523.093 919.466 525.007L912.534 528.993ZM919.466 525.007L1007.47 678.007L1000.53 681.993L912.534 528.993L919.466 525.007Z" fill="url(#paint3_linear_3_201)"/>
<path d="M998.358 669.991L989 672.194L1010.77 691.533L1004.96 663L998.358 669.991Z" fill="#2563EB"/>
<path d="M842 351L884 191" stroke="url(#paint4_linear_3_201)" stroke-width="7.99608" stroke-miterlimit="8" stroke-linecap="round"/>
<path d="M884 191L990 102" stroke="url(#paint5_linear_3_201)" stroke-width="7.99608" stroke-miterlimit="8" stroke-linecap="round"/>
<path d="M884 191L656 108" stroke="url(#paint6_linear_3_201)" stroke-width="7.99608" stroke-miterlimit="8" stroke-linecap="round"/>
<path d="M656 108L478 217" stroke="url(#paint7_linear_3_201)" stroke-width="7.99608" stroke-miterlimit="8" stroke-linecap="round"/>
<path d="M842 351L916 528" stroke="url(#paint8_linear_3_201)" stroke-width="7.99608" stroke-miterlimit="8" stroke-linecap="round"/>
<path d="M916 528L753 626" stroke="url(#paint9_linear_3_201)" stroke-width="7.99608" stroke-miterlimit="8" stroke-linecap="round"/>
<path d="M753 626L632 493" stroke="url(#paint10_linear_3_201)" stroke-width="7.99608" stroke-miterlimit="8" stroke-linecap="round"/>
<path d="M753 626L522 601" stroke="url(#paint11_linear_3_201)" stroke-width="7.99608" stroke-miterlimit="8" stroke-linecap="round"/>
<path d="M632 493L522 601" stroke="#7F7F7F" stroke-width="7.99608" stroke-miterlimit="8" stroke-linecap="round"/>
<path d="M718.5 962C746.943 962 770 938.943 770 910.5C770 882.057 746.943 859 718.5 859C690.057 859 667 882.057 667 910.5C667 938.943 690.057 962 718.5 962Z" fill="#DDDDDD" fill-opacity="0.866667" stroke="#404040" stroke-width="7.99608" stroke-miterlimit="8"/>
<path d="M1031 767C1051.99 767 1069 749.987 1069 729C1069 708.013 1051.99 691 1031 691C1010.01 691 993 708.013 993 729C993 749.987 1010.01 767 1031 767Z" fill="white" stroke="#2563EB" stroke-width="7.99608" stroke-miterlimit="8"/>
<path d="M1083 1319C1111.72 1319 1135 1295.72 1135 1267C1135 1238.28 1111.72 1215 1083 1215C1054.28 1215 1031 1238.28 1031 1267C1031 1295.72 1054.28 1319 1083 1319Z" fill="white" stroke="#B42121" stroke-width="7.99608" stroke-miterlimit="8"/>
<path d="M1294.5 958C1314.11 958 1330 942.106 1330 922.5C1330 902.894 1314.11 887 1294.5 887C1274.89 887 1259 902.894 1259 922.5C1259 942.106 1274.89 958 1294.5 958Z" fill="white" stroke="#2563EB" stroke-width="7.99608" stroke-miterlimit="8"/>
<path d="M884 229C904.987 229 922 211.987 922 191C922 170.013 904.987 153 884 153C863.013 153 846 170.013 846 191C846 211.987 863.013 229 884 229Z" fill="white" stroke="#404040" stroke-width="7.99608" stroke-miterlimit="8"/>
<path d="M990 138C1009.88 138 1026 121.882 1026 102C1026 82.1177 1009.88 66 990 66C970.118 66 954 82.1177 954 102C954 121.882 970.118 138 990 138Z" fill="white" stroke="#595959" stroke-width="7.99608" stroke-miterlimit="8"/>
<path d="M656 156C682.51 156 704 134.51 704 108C704 81.4903 682.51 60 656 60C629.49 60 608 81.4903 608 108C608 134.51 629.49 156 656 156Z" fill="white" stroke="#595959" stroke-width="7.99608" stroke-miterlimit="8"/>
<path d="M478 243C492.359 243 504 231.359 504 217C504 202.641 492.359 191 478 191C463.641 191 452 202.641 452 217C452 231.359 463.641 243 478 243Z" fill="white" stroke="#7F7F7F" stroke-width="7.99608" stroke-miterlimit="8"/>
<path d="M916 566C936.987 566 954 548.987 954 528C954 507.013 936.987 490 916 490C895.013 490 878 507.013 878 528C878 548.987 895.013 566 916 566Z" fill="white" stroke="#404040" stroke-width="7.99608" stroke-miterlimit="8"/>
<path d="M753 658C770.673 658 785 643.673 785 626C785 608.327 770.673 594 753 594C735.327 594 721 608.327 721 626C721 643.673 735.327 658 753 658Z" fill="white" stroke="#595959" stroke-width="7.99608" stroke-miterlimit="8"/>
<path d="M632 517C645.255 517 656 506.255 656 493C656 479.745 645.255 469 632 469C618.745 469 608 479.745 608 493C608 506.255 618.745 517 632 517Z" fill="white" stroke="#7F7F7F" stroke-width="7.99608" stroke-miterlimit="8"/>
<path d="M522 625C535.255 625 546 614.255 546 601C546 587.745 535.255 577 522 577C508.745 577 498 587.745 498 601C498 614.255 508.745 625 522 625Z" fill="white" stroke="#7F7F7F" stroke-width="7.99608" stroke-miterlimit="8"/>
<path d="M1278.42 912.529L1278.51 914.271C1278.89 913.622 1279.37 913.116 1279.98 912.751C1280.59 912.387 1281.33 912.199 1282.2 912.188C1282.69 912.188 1283.12 912.245 1283.51 912.359C1283.91 912.461 1284.26 912.615 1284.55 912.82C1284.77 912.979 1284.96 913.172 1285.13 913.4C1285.32 913.628 1285.47 913.884 1285.59 914.168C1285.75 913.906 1285.94 913.662 1286.16 913.434C1286.37 913.207 1286.61 913.007 1286.86 912.837C1287.18 912.643 1287.53 912.49 1287.92 912.376C1288.31 912.262 1288.75 912.199 1289.21 912.188C1289.85 912.188 1290.43 912.285 1290.94 912.478C1291.45 912.66 1291.88 912.933 1292.23 913.298C1292.62 913.707 1292.92 914.242 1293.12 914.902C1293.33 915.551 1293.43 916.319 1293.43 917.207V931H1290.43V917.173C1290.43 916.786 1290.38 916.444 1290.29 916.148C1290.2 915.853 1290.07 915.608 1289.9 915.414C1289.71 915.232 1289.49 915.096 1289.21 915.005C1288.95 914.914 1288.64 914.868 1288.29 914.868C1287.92 914.868 1287.59 914.919 1287.32 915.022C1287.05 915.124 1286.82 915.261 1286.64 915.431C1286.45 915.614 1286.31 915.824 1286.21 916.063C1286.11 916.291 1286.04 916.547 1286 916.831C1286 916.888 1286 916.945 1286 917.002C1286 917.047 1286 917.104 1286 917.173V931H1283V917.156C1283 916.769 1282.95 916.427 1282.86 916.131C1282.78 915.835 1282.65 915.591 1282.47 915.397C1282.3 915.215 1282.08 915.084 1281.82 915.005C1281.57 914.914 1281.28 914.868 1280.93 914.868C1280.56 914.868 1280.23 914.914 1279.94 915.005C1279.67 915.084 1279.44 915.204 1279.24 915.363C1279.1 915.488 1278.96 915.631 1278.85 915.79C1278.75 915.949 1278.66 916.12 1278.59 916.302V931H1275.59V912.529H1278.42ZM1299.46 938.46C1299.16 938.46 1298.81 938.426 1298.41 938.358C1298.02 938.289 1297.71 938.232 1297.51 938.187L1298.02 935.609C1298.31 935.632 1298.58 935.649 1298.86 935.66C1299.14 935.683 1299.36 935.694 1299.52 935.694C1299.96 935.694 1300.35 935.575 1300.7 935.336C1301.07 935.097 1301.39 934.812 1301.67 934.482C1301.95 934.152 1302.18 933.811 1302.37 933.458C1302.58 933.105 1302.74 932.815 1302.85 932.588L1304.12 930.129L1296.16 912.529H1299.69L1304.76 924.445L1305.58 926.681L1306.45 924.513L1311.22 912.529H1314.75L1305.38 933.851C1305.16 934.329 1304.88 934.835 1304.54 935.37C1304.21 935.905 1303.81 936.4 1303.33 936.855C1302.85 937.31 1302.29 937.692 1301.66 937.999C1301.02 938.306 1300.29 938.46 1299.46 938.46Z" fill="black"/>
<path d="M1043.4 1267.61C1043.4 1266.23 1043.56 1264.97 1043.89 1263.82C1044.23 1262.66 1044.72 1261.66 1045.36 1260.83C1046 1260 1046.77 1259.35 1047.68 1258.89C1048.59 1258.42 1049.62 1258.19 1050.77 1258.19C1051.51 1258.19 1052.19 1258.27 1052.8 1258.44C1053.43 1258.61 1053.99 1258.87 1054.49 1259.2C1054.76 1259.37 1055.02 1259.57 1055.26 1259.79C1055.51 1260.02 1055.74 1260.27 1055.96 1260.54L1056.11 1258.53H1058.98V1276.61C1058.98 1277.83 1058.79 1278.91 1058.4 1279.85C1058.03 1280.8 1057.5 1281.6 1056.81 1282.26C1056.12 1282.92 1055.29 1283.42 1054.34 1283.76C1053.38 1284.1 1052.32 1284.27 1051.16 1284.27C1050.69 1284.27 1050.14 1284.22 1049.52 1284.1C1048.91 1284 1048.29 1283.82 1047.66 1283.57C1047.03 1283.33 1046.41 1283.01 1045.82 1282.6C1045.24 1282.19 1044.74 1281.68 1044.32 1281.08L1045.96 1279.19C1046.34 1279.65 1046.74 1280.04 1047.15 1280.36C1047.56 1280.69 1047.98 1280.95 1048.4 1281.15C1048.82 1281.34 1049.24 1281.48 1049.66 1281.56C1050.08 1281.65 1050.5 1281.69 1050.92 1281.69C1051.68 1281.69 1052.35 1281.59 1052.96 1281.37C1053.56 1281.15 1054.08 1280.84 1054.51 1280.41C1054.93 1280 1055.25 1279.49 1055.48 1278.88C1055.71 1278.26 1055.82 1277.56 1055.82 1276.76V1275.17C1055.58 1275.45 1055.33 1275.7 1055.06 1275.92C1054.79 1276.15 1054.51 1276.35 1054.2 1276.52C1053.72 1276.78 1053.19 1276.98 1052.61 1277.12C1052.03 1277.27 1051.41 1277.34 1050.74 1277.34C1049.61 1277.34 1048.59 1277.1 1047.68 1276.62C1046.77 1276.15 1046 1275.49 1045.38 1274.64C1044.74 1273.8 1044.25 1272.81 1043.91 1271.67C1043.57 1270.52 1043.4 1269.29 1043.4 1267.97V1267.61ZM1046.55 1267.97C1046.55 1268.87 1046.64 1269.72 1046.83 1270.53C1047.02 1271.34 1047.32 1272.05 1047.73 1272.66C1048.13 1273.28 1048.64 1273.77 1049.27 1274.13C1049.89 1274.48 1050.65 1274.66 1051.52 1274.66C1052.07 1274.66 1052.56 1274.6 1052.99 1274.47C1053.43 1274.34 1053.83 1274.15 1054.18 1273.91C1054.53 1273.67 1054.83 1273.39 1055.11 1273.06C1055.38 1272.73 1055.62 1272.36 1055.82 1271.96V1263.5C1055.62 1263.11 1055.38 1262.76 1055.11 1262.44C1054.83 1262.12 1054.52 1261.84 1054.17 1261.6C1053.81 1261.37 1053.42 1261.2 1052.99 1261.07C1052.56 1260.94 1052.08 1260.87 1051.56 1260.87C1050.67 1260.87 1049.91 1261.05 1049.27 1261.41C1048.64 1261.78 1048.13 1262.27 1047.73 1262.88C1047.32 1263.51 1047.02 1264.23 1046.83 1265.05C1046.64 1265.86 1046.55 1266.71 1046.55 1267.61V1267.97ZM1064.09 1267.59C1064.09 1266.26 1064.28 1265.03 1064.67 1263.89C1065.05 1262.74 1065.61 1261.74 1066.34 1260.9C1067.06 1260.06 1067.93 1259.4 1068.97 1258.92C1070 1258.43 1071.17 1258.19 1072.47 1258.19C1073.78 1258.19 1074.95 1258.43 1075.98 1258.92C1077.03 1259.4 1077.92 1260.06 1078.65 1260.9C1079.36 1261.74 1079.92 1262.74 1080.3 1263.89C1080.69 1265.03 1080.88 1266.26 1080.88 1267.59V1267.97C1080.88 1269.3 1080.69 1270.54 1080.3 1271.67C1079.92 1272.81 1079.36 1273.8 1078.65 1274.64C1077.92 1275.49 1077.04 1276.15 1076 1276.62C1074.97 1277.1 1073.8 1277.34 1072.5 1277.34C1071.19 1277.34 1070.01 1277.1 1068.97 1276.62C1067.93 1276.15 1067.06 1275.49 1066.34 1274.64C1065.61 1273.8 1065.05 1272.81 1064.67 1271.67C1064.28 1270.54 1064.09 1269.3 1064.09 1267.97V1267.59ZM1067.24 1267.97C1067.24 1268.88 1067.35 1269.75 1067.57 1270.58C1067.78 1271.4 1068.11 1272.12 1068.56 1272.75C1068.99 1273.38 1069.54 1273.87 1070.2 1274.23C1070.86 1274.6 1071.63 1274.78 1072.5 1274.78C1073.37 1274.78 1074.12 1274.6 1074.77 1274.23C1075.43 1273.87 1075.98 1273.38 1076.43 1272.75C1076.86 1272.12 1077.18 1271.4 1077.4 1270.58C1077.62 1269.75 1077.73 1268.88 1077.73 1267.97V1267.59C1077.73 1266.69 1077.61 1265.84 1077.38 1265.02C1077.17 1264.19 1076.84 1263.46 1076.41 1262.83C1075.97 1262.21 1075.41 1261.71 1074.75 1261.35C1074.11 1260.97 1073.34 1260.78 1072.47 1260.78C1071.59 1260.78 1070.83 1260.97 1070.18 1261.35C1069.53 1261.71 1068.99 1262.21 1068.56 1262.83C1068.11 1263.46 1067.78 1264.19 1067.57 1265.02C1067.35 1265.84 1067.24 1266.69 1067.24 1267.59V1267.97ZM1098.11 1277C1097.98 1276.76 1097.88 1276.47 1097.8 1276.11C1097.73 1275.75 1097.68 1275.37 1097.65 1274.99C1097.33 1275.3 1096.97 1275.61 1096.57 1275.89C1096.18 1276.17 1095.76 1276.43 1095.29 1276.64C1094.81 1276.86 1094.31 1277.03 1093.77 1277.15C1093.24 1277.28 1092.67 1277.34 1092.06 1277.34C1091.09 1277.34 1090.2 1277.2 1089.4 1276.91C1088.62 1276.63 1087.95 1276.24 1087.4 1275.75C1086.85 1275.28 1086.41 1274.71 1086.11 1274.05C1085.81 1273.38 1085.66 1272.65 1085.66 1271.88C1085.66 1270.87 1085.86 1269.98 1086.26 1269.22C1086.67 1268.45 1087.24 1267.82 1087.98 1267.3C1088.72 1266.8 1089.61 1266.43 1090.65 1266.18C1091.69 1265.93 1092.86 1265.8 1094.15 1265.8H1097.6V1264.35C1097.6 1263.79 1097.49 1263.29 1097.29 1262.85C1097.08 1262.4 1096.79 1262.02 1096.42 1261.7C1096.04 1261.4 1095.58 1261.16 1095.03 1260.99C1094.5 1260.82 1093.9 1260.73 1093.23 1260.73C1092.6 1260.73 1092.04 1260.81 1091.54 1260.97C1091.05 1261.13 1090.63 1261.34 1090.29 1261.6C1089.95 1261.86 1089.68 1262.18 1089.49 1262.54C1089.3 1262.89 1089.21 1263.26 1089.21 1263.65H1086.04C1086.05 1262.98 1086.22 1262.32 1086.55 1261.67C1086.89 1261.02 1087.38 1260.44 1088.02 1259.91C1088.64 1259.4 1089.41 1258.98 1090.31 1258.67C1091.22 1258.35 1092.25 1258.19 1093.4 1258.19C1094.44 1258.19 1095.42 1258.32 1096.32 1258.58C1097.21 1258.83 1097.99 1259.21 1098.65 1259.72C1099.3 1260.25 1099.81 1260.9 1100.19 1261.67C1100.57 1262.44 1100.75 1263.35 1100.75 1264.38V1272.97C1100.75 1273.59 1100.81 1274.24 1100.92 1274.93C1101.04 1275.62 1101.2 1276.21 1101.4 1276.73V1277H1098.11ZM1092.53 1274.59C1093.14 1274.59 1093.71 1274.51 1094.25 1274.35C1094.78 1274.19 1095.27 1273.98 1095.72 1273.72C1096.15 1273.46 1096.53 1273.16 1096.84 1272.83C1097.16 1272.49 1097.41 1272.14 1097.6 1271.78V1268.04H1094.66C1093.57 1268.04 1092.61 1268.13 1091.79 1268.33C1090.98 1268.51 1090.34 1268.79 1089.86 1269.18C1089.52 1269.45 1089.26 1269.78 1089.08 1270.15C1088.91 1270.53 1088.82 1270.96 1088.82 1271.43C1088.82 1271.89 1088.9 1272.31 1089.04 1272.7C1089.2 1273.09 1089.44 1273.42 1089.74 1273.69C1090.05 1273.97 1090.44 1274.19 1090.9 1274.35C1091.37 1274.51 1091.91 1274.59 1092.53 1274.59ZM1107.46 1250.78H1116.9V1274.27H1122.93V1277H1107.46V1274.27H1113.74V1253.53H1107.46V1250.78Z" fill="black"/>
<path d="M677.326 915.921C677.603 915.921 677.871 915.877 678.131 915.788C678.397 915.7 678.632 915.575 678.837 915.415C679.042 915.26 679.205 915.077 679.327 914.867C679.454 914.651 679.52 914.418 679.526 914.169H680.979C680.973 914.568 680.868 914.95 680.663 915.315C680.464 915.675 680.195 915.99 679.858 916.261C679.52 916.538 679.133 916.759 678.696 916.925C678.259 917.086 677.802 917.166 677.326 917.166C676.646 917.166 676.051 917.044 675.542 916.801C675.032 916.557 674.609 916.228 674.271 915.813C673.928 915.403 673.671 914.93 673.5 914.394C673.328 913.851 673.242 913.281 673.242 912.684V912.335C673.242 911.743 673.328 911.176 673.5 910.633C673.671 910.091 673.928 909.612 674.271 909.197C674.609 908.788 675.032 908.461 675.542 908.218C676.051 907.974 676.646 907.853 677.326 907.853C677.857 907.853 678.344 907.938 678.787 908.11C679.235 908.276 679.623 908.503 679.949 908.791C680.27 909.084 680.522 909.43 680.705 909.828C680.887 910.227 680.979 910.653 680.979 911.106H679.526C679.52 910.835 679.459 910.581 679.343 910.343C679.233 910.099 679.08 909.886 678.887 909.704C678.693 909.521 678.461 909.377 678.189 909.272C677.924 909.167 677.636 909.114 677.326 909.114C676.85 909.114 676.449 909.211 676.123 909.405C675.802 909.593 675.542 909.839 675.342 910.144C675.143 910.453 674.999 910.799 674.911 911.181C674.828 911.563 674.786 911.948 674.786 912.335V912.684C674.786 913.076 674.828 913.467 674.911 913.854C674.999 914.236 675.143 914.579 675.342 914.883C675.536 915.193 675.793 915.445 676.114 915.639C676.441 915.827 676.845 915.921 677.326 915.921ZM683.278 912.426C683.278 911.779 683.372 911.178 683.56 910.625C683.748 910.066 684.019 909.582 684.374 909.172C684.722 908.763 685.148 908.442 685.652 908.209C686.155 907.972 686.723 907.853 687.354 907.853C687.99 907.853 688.56 907.972 689.063 908.209C689.573 908.442 690.004 908.763 690.358 909.172C690.707 909.582 690.975 910.066 691.164 910.625C691.352 911.178 691.446 911.779 691.446 912.426V912.609C691.446 913.256 691.352 913.857 691.164 914.41C690.975 914.964 690.707 915.445 690.358 915.854C690.004 916.264 689.575 916.585 689.072 916.817C688.568 917.05 688.001 917.166 687.37 917.166C686.734 917.166 686.161 917.05 685.652 916.817C685.148 916.585 684.722 916.264 684.374 915.854C684.019 915.445 683.748 914.964 683.56 914.41C683.372 913.857 683.278 913.256 683.278 912.609V912.426ZM684.813 912.609C684.813 913.052 684.866 913.475 684.971 913.879C685.076 914.277 685.237 914.629 685.453 914.933C685.663 915.237 685.929 915.478 686.25 915.655C686.57 915.832 686.944 915.921 687.37 915.921C687.791 915.921 688.159 915.832 688.474 915.655C688.795 915.478 689.063 915.237 689.279 914.933C689.49 914.629 689.647 914.277 689.752 913.879C689.858 913.475 689.91 913.052 689.91 912.609V912.426C689.91 911.989 689.855 911.571 689.744 911.173C689.639 910.769 689.481 910.415 689.271 910.11C689.055 909.806 688.787 909.565 688.466 909.388C688.15 909.206 687.78 909.114 687.354 909.114C686.927 909.114 686.557 909.206 686.241 909.388C685.926 909.565 685.663 909.806 685.453 910.11C685.237 910.415 685.076 910.769 684.971 911.173C684.866 911.571 684.813 911.989 684.813 912.426V912.609ZM693.919 917V908.019H695.297L695.405 909.347C695.538 909.159 695.682 908.987 695.837 908.832C695.997 908.672 696.166 908.533 696.343 908.417C696.609 908.24 696.897 908.104 697.207 908.01C697.522 907.911 697.854 907.858 698.203 907.853C698.673 907.853 699.099 907.919 699.481 908.052C699.868 908.185 700.198 908.392 700.469 908.674C700.74 908.957 700.947 909.316 701.091 909.753C701.241 910.185 701.315 910.7 701.315 911.297V917H699.78V911.331C699.78 910.932 699.736 910.595 699.647 910.318C699.558 910.041 699.428 909.817 699.257 909.646C699.08 909.474 698.864 909.349 698.609 909.272C698.36 909.194 698.073 909.156 697.746 909.156C697.464 909.156 697.201 909.197 696.958 909.28C696.714 909.358 696.49 909.466 696.285 909.604C696.119 909.726 695.964 909.867 695.82 910.027C695.682 910.188 695.56 910.365 695.455 910.559V917H693.919ZM706.42 917V909.206H703.947V908.019H706.42V907.388C706.42 906.812 706.503 906.309 706.669 905.877C706.841 905.44 707.082 905.075 707.392 904.781C707.696 904.488 708.064 904.267 708.496 904.117C708.927 903.968 709.409 903.893 709.94 903.893C710.161 903.893 710.38 903.907 710.596 903.935C710.812 903.957 711.025 903.987 711.235 904.026C711.373 904.054 711.512 904.084 711.65 904.117C711.788 904.145 711.929 904.178 712.073 904.217L711.891 905.487C711.664 905.409 711.398 905.343 711.094 905.288C710.795 905.227 710.474 905.196 710.131 905.196C709.782 905.196 709.472 905.241 709.201 905.329C708.936 905.412 708.714 905.539 708.537 905.711C708.349 905.888 708.205 906.118 708.105 906.4C708.011 906.682 707.964 907.011 707.964 907.388V908.019H711.426V909.206H707.964V917H706.42ZM720.258 917L720.167 915.763C719.868 916.206 719.494 916.552 719.046 916.801C718.598 917.044 718.08 917.166 717.494 917.166C717.023 917.166 716.597 917.094 716.215 916.95C715.833 916.801 715.507 916.571 715.236 916.261C714.965 915.951 714.754 915.558 714.605 915.083C714.461 914.601 714.389 914.026 714.389 913.356V908.019H715.925V913.373C715.925 913.86 715.964 914.264 716.041 914.584C716.118 914.905 716.235 915.16 716.39 915.348C716.545 915.542 716.733 915.677 716.954 915.755C717.181 915.832 717.441 915.871 717.734 915.871C718.077 915.871 718.385 915.832 718.656 915.755C718.927 915.672 719.162 915.558 719.361 915.415C719.527 915.298 719.671 915.16 719.793 915C719.92 914.833 720.025 914.654 720.108 914.46V908.019H721.652V917H720.258ZM730.518 914.618C730.518 914.435 730.482 914.272 730.41 914.128C730.338 913.979 730.216 913.843 730.044 913.721C729.873 913.599 729.646 913.489 729.364 913.389C729.082 913.284 728.73 913.19 728.31 913.107C727.795 913.002 727.325 912.875 726.898 912.725C726.478 912.576 726.118 912.396 725.819 912.186C725.515 911.981 725.28 911.74 725.114 911.463C724.948 911.181 724.865 910.855 724.865 910.484C724.865 910.119 724.951 909.778 725.122 909.463C725.294 909.142 725.534 908.862 725.844 908.625C726.154 908.387 726.522 908.198 726.948 908.06C727.38 907.922 727.853 907.853 728.368 907.853C728.921 907.853 729.419 907.924 729.862 908.068C730.305 908.212 730.681 908.411 730.991 908.666C731.301 908.921 731.539 909.219 731.705 909.562C731.876 909.9 731.962 910.265 731.962 910.658H730.426C730.426 910.465 730.376 910.276 730.277 910.094C730.177 909.906 730.039 909.74 729.862 909.596C729.685 909.452 729.469 909.336 729.214 909.247C728.965 909.159 728.683 909.114 728.368 909.114C728.041 909.114 727.753 909.15 727.504 909.222C727.261 909.294 727.059 909.391 726.898 909.513C726.732 909.634 726.608 909.776 726.525 909.936C726.442 910.097 726.4 910.263 726.4 910.434C726.4 910.611 726.434 910.769 726.5 910.907C726.566 911.046 726.683 911.17 726.849 911.281C727.009 911.391 727.225 911.491 727.496 911.58C727.773 911.668 728.121 911.754 728.542 911.837C729.095 911.953 729.591 912.089 730.028 912.244C730.465 912.393 730.833 912.573 731.132 912.783C731.431 912.999 731.658 913.248 731.812 913.53C731.973 913.812 732.053 914.139 732.053 914.51C732.053 914.908 731.962 915.271 731.779 915.597C731.602 915.924 731.353 916.203 731.032 916.436C730.711 916.668 730.327 916.848 729.878 916.975C729.43 917.102 728.94 917.166 728.409 917.166C727.8 917.166 727.258 917.086 726.782 916.925C726.306 916.759 725.905 916.541 725.579 916.27C725.247 916.004 724.992 915.694 724.815 915.34C724.643 914.986 724.558 914.618 724.558 914.236H726.093C726.115 914.551 726.198 914.817 726.342 915.033C726.492 915.249 726.677 915.423 726.898 915.556C727.114 915.688 727.355 915.783 727.621 915.838C727.886 915.893 728.149 915.921 728.409 915.921C728.819 915.921 729.176 915.874 729.48 915.78C729.784 915.68 730.022 915.545 730.194 915.373C730.299 915.268 730.379 915.152 730.435 915.024C730.49 914.897 730.518 914.762 730.518 914.618ZM735 908.019H739.59V915.672H742.521V917H735V915.672H738.055V909.355H735V908.019ZM737.855 905.661C737.855 905.528 737.875 905.404 737.914 905.288C737.958 905.171 738.024 905.072 738.113 904.989C738.185 904.917 738.276 904.861 738.387 904.823C738.503 904.778 738.633 904.756 738.777 904.756C738.921 904.756 739.048 904.778 739.159 904.823C739.269 904.861 739.361 904.917 739.433 904.989C739.521 905.066 739.588 905.163 739.632 905.279C739.676 905.396 739.698 905.523 739.698 905.661C739.698 905.91 739.621 906.118 739.466 906.284C739.311 906.45 739.081 906.533 738.777 906.533C738.467 906.533 738.235 906.45 738.08 906.284C737.93 906.118 737.855 905.91 737.855 905.661ZM744.538 912.426C744.538 911.779 744.632 911.178 744.82 910.625C745.008 910.066 745.279 909.582 745.633 909.172C745.982 908.763 746.408 908.442 746.912 908.209C747.415 907.972 747.982 907.853 748.613 907.853C749.25 907.853 749.82 907.972 750.323 908.209C750.832 908.442 751.264 908.763 751.618 909.172C751.967 909.582 752.235 910.066 752.423 910.625C752.611 911.178 752.706 911.779 752.706 912.426V912.609C752.706 913.256 752.611 913.857 752.423 914.41C752.235 914.964 751.967 915.445 751.618 915.854C751.264 916.264 750.835 916.585 750.332 916.817C749.828 917.05 749.261 917.166 748.63 917.166C747.993 917.166 747.421 917.05 746.912 916.817C746.408 916.585 745.982 916.264 745.633 915.854C745.279 915.445 745.008 914.964 744.82 914.41C744.632 913.857 744.538 913.256 744.538 912.609V912.426ZM746.073 912.609C746.073 913.052 746.126 913.475 746.231 913.879C746.336 914.277 746.497 914.629 746.712 914.933C746.923 915.237 747.188 915.478 747.509 915.655C747.83 915.832 748.204 915.921 748.63 915.921C749.05 915.921 749.418 915.832 749.734 915.655C750.055 915.478 750.323 915.237 750.539 914.933C750.749 914.629 750.907 914.277 751.012 913.879C751.117 913.475 751.17 913.052 751.17 912.609V912.426C751.17 911.989 751.115 911.571 751.004 911.173C750.899 910.769 750.741 910.415 750.531 910.11C750.315 909.806 750.047 909.565 749.726 909.388C749.41 909.206 749.039 909.114 748.613 909.114C748.187 909.114 747.816 909.206 747.501 909.388C747.186 909.565 746.923 909.806 746.712 910.11C746.497 910.415 746.336 910.769 746.231 911.173C746.126 911.571 746.073 911.989 746.073 912.426V912.609ZM755.179 917V908.019H756.557L756.665 909.347C756.798 909.159 756.942 908.987 757.097 908.832C757.257 908.672 757.426 908.533 757.603 908.417C757.869 908.24 758.156 908.104 758.466 908.01C758.782 907.911 759.114 907.858 759.462 907.853C759.933 907.853 760.359 907.919 760.741 908.052C761.128 908.185 761.457 908.392 761.729 908.674C762 908.957 762.207 909.316 762.351 909.753C762.5 910.185 762.575 910.7 762.575 911.297V917H761.04V911.331C761.04 910.932 760.995 910.595 760.907 910.318C760.818 910.041 760.688 909.817 760.517 909.646C760.34 909.474 760.124 909.349 759.869 909.272C759.62 909.194 759.332 909.156 759.006 909.156C758.724 909.156 758.461 909.197 758.217 909.28C757.974 909.358 757.75 909.466 757.545 909.604C757.379 909.726 757.224 909.867 757.08 910.027C756.942 910.188 756.82 910.365 756.715 910.559V917H755.179Z" fill="black"/>
<path d="M1020.45 718.057V722.529H1027.48V724.971H1020.45V735.008C1020.45 735.725 1020.54 736.317 1020.72 736.784C1020.91 737.25 1021.16 737.62 1021.47 737.893C1021.79 738.178 1022.16 738.377 1022.57 738.491C1022.99 738.604 1023.43 738.661 1023.9 738.661C1024.24 738.661 1024.59 738.644 1024.96 738.61C1025.32 738.565 1025.68 738.513 1026.03 738.456C1026.37 738.4 1026.69 738.343 1026.99 738.286C1027.3 738.217 1027.55 738.161 1027.74 738.115L1028.18 740.351C1027.92 740.511 1027.6 740.653 1027.23 740.778C1026.85 740.892 1026.44 740.989 1026 741.068C1025.55 741.159 1025.08 741.228 1024.58 741.273C1024.09 741.319 1023.6 741.341 1023.11 741.341C1022.29 741.341 1021.53 741.228 1020.81 741C1020.1 740.761 1019.49 740.385 1018.97 739.873C1018.44 739.373 1018.03 738.724 1017.72 737.927C1017.42 737.119 1017.28 736.146 1017.28 735.008V724.971H1012.43V722.529H1017.28V718.057H1020.45ZM1033.08 731.594C1033.08 730.262 1033.28 729.028 1033.66 727.89C1034.05 726.74 1034.61 725.744 1035.34 724.902C1036.05 724.06 1036.93 723.4 1037.96 722.922C1039 722.433 1040.17 722.188 1041.46 722.188C1042.77 722.188 1043.95 722.433 1044.98 722.922C1046.03 723.4 1046.92 724.06 1047.64 724.902C1048.36 725.744 1048.91 726.74 1049.3 727.89C1049.69 729.028 1049.88 730.262 1049.88 731.594V731.97C1049.88 733.301 1049.69 734.536 1049.3 735.674C1048.91 736.812 1048.36 737.802 1047.64 738.644C1046.92 739.486 1046.03 740.146 1045 740.624C1043.96 741.102 1042.8 741.341 1041.5 741.341C1040.19 741.341 1039.01 741.102 1037.96 740.624C1036.93 740.146 1036.05 739.486 1035.34 738.644C1034.61 737.802 1034.05 736.812 1033.66 735.674C1033.28 734.536 1033.08 733.301 1033.08 731.97V731.594ZM1036.24 731.97C1036.24 732.88 1036.35 733.751 1036.57 734.581C1036.78 735.401 1037.11 736.123 1037.56 736.749C1037.99 737.375 1038.53 737.87 1039.19 738.235C1039.85 738.599 1040.62 738.781 1041.5 738.781C1042.36 738.781 1043.12 738.599 1043.77 738.235C1044.43 737.87 1044.98 737.375 1045.42 736.749C1045.86 736.123 1046.18 735.401 1046.4 734.581C1046.61 733.751 1046.72 732.88 1046.72 731.97V731.594C1046.72 730.695 1046.61 729.836 1046.38 729.016C1046.16 728.186 1045.84 727.457 1045.41 726.831C1044.96 726.205 1044.41 725.71 1043.75 725.346C1043.1 724.971 1042.34 724.783 1041.46 724.783C1040.59 724.783 1039.83 724.971 1039.18 725.346C1038.53 725.71 1037.99 726.205 1037.56 726.831C1037.11 727.457 1036.78 728.186 1036.57 729.016C1036.35 729.836 1036.24 730.695 1036.24 731.594V731.97Z" fill="black"/>
<path d="M889.199 540.875V523.32H891.18L891.285 524.703C891.457 524.484 891.645 524.289 891.848 524.117C892.051 523.938 892.27 523.785 892.504 523.66C892.832 523.473 893.195 523.332 893.594 523.238C894 523.137 894.434 523.086 894.895 523.086C895.707 523.086 896.426 523.246 897.051 523.566C897.676 523.887 898.199 524.332 898.621 524.902C899.043 525.473 899.363 526.156 899.582 526.953C899.801 527.742 899.91 528.609 899.91 529.555V529.801C899.91 530.707 899.801 531.555 899.582 532.344C899.363 533.125 899.043 533.805 898.621 534.383C898.199 534.961 897.676 535.414 897.051 535.742C896.434 536.07 895.727 536.234 894.93 536.234C894.445 536.234 893.992 536.184 893.57 536.082C893.156 535.98 892.781 535.836 892.445 535.648C892.242 535.531 892.051 535.402 891.871 535.262C891.691 535.113 891.523 534.953 891.367 534.781V540.875H889.199ZM897.742 529.555C897.742 528.938 897.672 528.352 897.531 527.797C897.398 527.234 897.191 526.738 896.91 526.309C896.621 525.887 896.258 525.551 895.82 525.301C895.383 525.051 894.859 524.926 894.25 524.926C893.914 524.926 893.602 524.965 893.312 525.043C893.031 525.121 892.777 525.234 892.551 525.383C892.301 525.531 892.078 525.715 891.883 525.934C891.688 526.152 891.516 526.395 891.367 526.66V532.766C891.5 533 891.652 533.219 891.824 533.422C891.996 533.625 892.191 533.797 892.41 533.938C892.66 534.102 892.938 534.23 893.242 534.324C893.555 534.418 893.898 534.465 894.273 534.465C894.875 534.465 895.395 534.34 895.832 534.09C896.27 533.832 896.629 533.488 896.91 533.059C897.191 532.629 897.398 532.133 897.531 531.57C897.672 531.008 897.742 530.418 897.742 529.801V529.555ZM911.957 536C911.871 535.836 911.801 535.633 911.746 535.391C911.699 535.141 911.664 534.883 911.641 534.617C911.422 534.836 911.176 535.043 910.902 535.238C910.637 535.434 910.344 535.605 910.023 535.754C909.695 535.902 909.348 536.02 908.98 536.105C908.613 536.191 908.223 536.234 907.809 536.234C907.137 536.234 906.527 536.137 905.98 535.941C905.441 535.746 904.984 535.48 904.609 535.145C904.227 534.816 903.93 534.426 903.719 533.973C903.516 533.512 903.414 533.016 903.414 532.484C903.414 531.789 903.551 531.18 903.824 530.656C904.105 530.133 904.5 529.695 905.008 529.344C905.516 529 906.125 528.742 906.836 528.57C907.555 528.398 908.355 528.312 909.238 528.312H911.605V527.316C911.605 526.934 911.535 526.59 911.395 526.285C911.254 525.98 911.055 525.719 910.797 525.5C910.539 525.289 910.223 525.125 909.848 525.008C909.48 524.891 909.066 524.832 908.605 524.832C908.176 524.832 907.789 524.887 907.445 524.996C907.109 525.105 906.824 525.25 906.59 525.43C906.355 525.609 906.172 525.824 906.039 526.074C905.914 526.316 905.852 526.57 905.852 526.836H903.672C903.68 526.375 903.797 525.922 904.023 525.477C904.258 525.031 904.594 524.629 905.031 524.27C905.461 523.918 905.984 523.633 906.602 523.414C907.227 523.195 907.934 523.086 908.723 523.086C909.441 523.086 910.109 523.176 910.727 523.355C911.344 523.527 911.879 523.789 912.332 524.141C912.777 524.5 913.129 524.945 913.387 525.477C913.645 526.008 913.773 526.629 913.773 527.34V533.234C913.773 533.656 913.812 534.105 913.891 534.582C913.969 535.051 914.078 535.461 914.219 535.812V536H911.957ZM908.125 534.348C908.547 534.348 908.941 534.293 909.309 534.184C909.676 534.074 910.012 533.93 910.316 533.75C910.613 533.57 910.871 533.367 911.09 533.141C911.309 532.906 911.48 532.664 911.605 532.414V529.848H909.59C908.84 529.848 908.184 529.914 907.621 530.047C907.066 530.172 906.625 530.367 906.297 530.633C906.062 530.82 905.883 531.043 905.758 531.301C905.641 531.559 905.582 531.852 905.582 532.18C905.582 532.492 905.633 532.781 905.734 533.047C905.844 533.312 906.004 533.539 906.215 533.727C906.426 533.922 906.691 534.074 907.012 534.184C907.332 534.293 907.703 534.348 908.125 534.348ZM923.172 520.25V523.32H928V524.996H923.172V531.887C923.172 532.379 923.234 532.785 923.359 533.105C923.484 533.426 923.656 533.68 923.875 533.867C924.094 534.062 924.344 534.199 924.625 534.277C924.914 534.355 925.219 534.395 925.539 534.395C925.773 534.395 926.016 534.383 926.266 534.359C926.516 534.328 926.762 534.293 927.004 534.254C927.238 534.215 927.457 534.176 927.66 534.137C927.871 534.09 928.043 534.051 928.176 534.02L928.48 535.555C928.301 535.664 928.082 535.762 927.824 535.848C927.566 535.926 927.285 535.992 926.98 536.047C926.676 536.109 926.352 536.156 926.008 536.188C925.672 536.219 925.336 536.234 925 536.234C924.438 536.234 923.91 536.156 923.418 536C922.934 535.836 922.512 535.578 922.152 535.227C921.793 534.883 921.508 534.438 921.297 533.891C921.094 533.336 920.992 532.668 920.992 531.887V524.996H917.664V523.32H920.992V520.25H923.172ZM934.621 525.207C934.793 524.949 934.984 524.715 935.195 524.504C935.406 524.285 935.629 524.094 935.863 523.93C936.238 523.656 936.648 523.449 937.094 523.309C937.547 523.168 938.027 523.094 938.535 523.086C939.199 523.086 939.801 523.184 940.34 523.379C940.887 523.566 941.352 523.863 941.734 524.27C942.117 524.676 942.41 525.191 942.613 525.816C942.824 526.434 942.93 527.168 942.93 528.02V536H940.762V527.996C940.762 527.496 940.703 527.059 940.586 526.684C940.469 526.301 940.297 525.984 940.07 525.734C939.828 525.461 939.523 525.258 939.156 525.125C938.789 524.984 938.367 524.918 937.891 524.926C937.5 524.926 937.129 524.98 936.777 525.09C936.426 525.199 936.102 525.355 935.805 525.559C935.57 525.715 935.352 525.898 935.148 526.109C934.953 526.312 934.777 526.539 934.621 526.789V536H932.453V518H934.621V525.207Z" fill="black"/>
<path d="M526 388.3H546" stroke="black" stroke-width="7.99608" stroke-miterlimit="8" stroke-linecap="round"/>
<path d="M486 388.3H492.678" stroke="black" stroke-width="7.99608" stroke-miterlimit="8" stroke-linecap="round"/>
<path d="M579 388.3H585.678" stroke="black" stroke-width="7.99608" stroke-miterlimit="8" stroke-linecap="round"/>
<path d="M536 388.284C536 349.284 536.096 346.378 536 327.284C535.904 308.189 574.913 308.288 575 327.284C575.087 346.279 575 349.284 575 388.284" stroke="black" stroke-width="7.99608" stroke-miterlimit="8" stroke-linecap="square"/>
<path d="M497 388.284C497 349.284 497.096 346.378 497 327.284C496.904 308.189 535.913 308.288 536 327.284C536.087 346.279 536 349.284 536 388.284" stroke="black" stroke-width="7.99608" stroke-miterlimit="8" stroke-linecap="square"/>
<path d="M673 314C673 348.859 673 356.254 673 372.099C673 387.944 653 389 643.5 389C634 389 613 387.944 613 372.099C613 356.254 613 348.859 613 314" stroke="black" stroke-width="7.99608" stroke-miterlimit="8" stroke-linecap="square" stroke-linejoin="round"/>
<path d="M762 388H702" stroke="black" stroke-width="7.99608" stroke-miterlimit="8" stroke-linecap="round"/>
<path d="M723 310V388.541" stroke="black" stroke-width="7.99608" stroke-miterlimit="8"/>
<path d="M719 314H702" stroke="black" stroke-width="7.99608" stroke-miterlimit="8" stroke-linecap="round"/>
<path d="M778 321.041C764.033 304.339 747.667 315.672 724 338.737" stroke="black" stroke-width="7.99608" stroke-miterlimit="8" stroke-linecap="round"/>
<path fill-rule="evenodd" clip-rule="evenodd" d="M804 350.5C804 329.237 821.237 312 842.5 312C863.763 312 881 329.237 881 350.5C881 371.763 863.763 389 842.5 389C821.237 389 804 371.763 804 350.5Z" fill="white" stroke="black" stroke-width="7.99608" stroke-miterlimit="8"/>
<path d="M902 283.763C919.182 278.737 952.41 278.869 952.944 298.842C953.054 311.679 952.947 383.992 953 384" stroke="black" stroke-width="7.99608" stroke-miterlimit="8" stroke-linecap="round"/>
<path d="M912 388H974.332" stroke="black" stroke-width="7.99608" stroke-miterlimit="8" stroke-linecap="round"/>
<path d="M912 316H974.332" stroke="black" stroke-width="7.99608" stroke-miterlimit="8" stroke-linecap="round"/>
<path d="M993 260V411.107" stroke="black" stroke-width="7.99608" stroke-miterlimit="8" stroke-linecap="round"/>
<defs>
<linearGradient id="paint0_linear_3_201" x1="1208.5" y1="1219.77" x2="1208.5" y2="904.396" gradientUnits="userSpaceOnUse">
<stop offset="0.155" stop-color="#2563EB"/>
</linearGradient>
<linearGradient id="paint1_linear_3_201" x1="1141" y1="893.501" x2="1141" y2="719.275" gradientUnits="userSpaceOnUse">
<stop offset="0.155" stop-color="#2563EB"/>
</linearGradient>
<linearGradient id="paint2_linear_3_201" x1="906" y1="881.089" x2="906" y2="717.89" gradientUnits="userSpaceOnUse">
<stop stop-color="#404040"/>
<stop offset="0.19" stop-color="#404040"/>
<stop offset="0.66" stop-color="#335296"/>
<stop offset="0.9" stop-color="#2563EB"/>
</linearGradient>
<linearGradient id="paint3_linear_3_201" x1="960" y1="686.295" x2="960" y2="517.583" gradientUnits="userSpaceOnUse">
<stop offset="0.155" stop-color="#2563EB"/>
<stop offset="0.4" stop-color="#335296"/>
<stop offset="0.8" stop-color="#404040"/>
<stop offset="1" stop-color="#404040"/>
</linearGradient>
<linearGradient id="paint4_linear_3_201" x1="863" y1="187.397" x2="863" y2="354.603" gradientUnits="userSpaceOnUse">
<stop stop-color="#404040"/>
<stop offset="0.2" stop-color="#404040"/>
<stop offset="0.8"/>
<stop offset="1"/>
</linearGradient>
<linearGradient id="paint5_linear_3_201" x1="937" y1="195.044" x2="937" y2="97.9559" gradientUnits="userSpaceOnUse">
<stop stop-color="#404040"/>
<stop offset="0.3" stop-color="#404040"/>
<stop offset="0.7" stop-color="#595959"/>
<stop offset="1" stop-color="#595959"/>
</linearGradient>
<linearGradient id="paint6_linear_3_201" x1="770" y1="104.066" x2="770" y2="194.934" gradientUnits="userSpaceOnUse">
<stop stop-color="#595959"/>
<stop offset="0.2" stop-color="#595959"/>
<stop offset="0.8" stop-color="#404040"/>
<stop offset="1" stop-color="#404040"/>
</linearGradient>
<linearGradient id="paint7_linear_3_201" x1="567" y1="104.022" x2="567" y2="220.978" gradientUnits="userSpaceOnUse">
<stop stop-color="#595959"/>
<stop offset="0.2" stop-color="#595959"/>
<stop offset="0.8" stop-color="#7F7F7F"/>
<stop offset="1" stop-color="#7F7F7F"/>
</linearGradient>
<linearGradient id="paint8_linear_3_201" x1="879" y1="346.464" x2="879" y2="532.536" gradientUnits="userSpaceOnUse">
<stop/>
<stop offset="0.3"/>
<stop offset="0.7" stop-color="#404040"/>
<stop offset="1" stop-color="#404040"/>
</linearGradient>
<linearGradient id="paint9_linear_3_201" x1="834.5" y1="630.032" x2="834.5" y2="521.968" gradientUnits="userSpaceOnUse">
<stop stop-color="#595959"/>
<stop offset="0.2" stop-color="#595959"/>
<stop offset="0.8" stop-color="#404040"/>
<stop offset="1" stop-color="#404040"/>
</linearGradient>
<linearGradient id="paint10_linear_3_201" x1="692.5" y1="488.994" x2="692.5" y2="630.006" gradientUnits="userSpaceOnUse">
<stop stop-color="#7F7F7F"/>
<stop offset="0.2" stop-color="#7F7F7F"/>
<stop offset="0.8" stop-color="#595959"/>
<stop offset="1" stop-color="#595959"/>
</linearGradient>
<linearGradient id="paint11_linear_3_201" x1="637" y1="630.032" x2="637" y2="596.968" gradientUnits="userSpaceOnUse">
<stop stop-color="#595959"/>
<stop offset="0.2" stop-color="#595959"/>
<stop offset="0.8" stop-color="#7F7F7F"/>
<stop offset="1" stop-color="#7F7F7F"/>
</linearGradient>
</defs>
</svg>
