<svg width="580" height="180" viewBox="0 0 580 180" fill="none" xmlns="http://www.w3.org/2000/svg">
<g id="murof_logo_wide" clip-path="url(#clip0_1_62)">
<g id="murof_wide">
<g id="murof">
<g id="f">
<path id="f_body" d="M451 37.763C468.182 32.737 501.41 32.869 501.944 52.842C502.054 65.679 501.947 137.992 502 138" stroke="black" stroke-width="7.99608" stroke-miterlimit="8" stroke-linecap="round"/>
<path id="f_line_bot" d="M461 142H523.332" stroke="black" stroke-width="7.99608" stroke-miterlimit="8" stroke-linecap="round"/>
<path id="f_line_top" d="M461 70H523.332" stroke="black" stroke-width="7.99608" stroke-miterlimit="8" stroke-linecap="round"/>
</g>
<g id="o">
<path id="o_2" fill-rule="evenodd" clip-rule="evenodd" d="M353 104.5C353 83.237 370.237 66 391.5 66C412.763 66 430 83.237 430 104.5C430 125.763 412.763 143 391.5 143C370.237 143 353 125.763 353 104.5Z" stroke="black" stroke-width="7.99608" stroke-miterlimit="8"/>
</g>
<g id="r">
<path id="r_foot" d="M311 142H251" stroke="black" stroke-width="7.99608" stroke-miterlimit="8" stroke-linecap="round"/>
<path id="r_line" d="M272 64V142.541" stroke="black" stroke-width="7.99608" stroke-miterlimit="8"/>
<path id="r_head" d="M268 68H251" stroke="black" stroke-width="7.99608" stroke-miterlimit="8" stroke-linecap="round"/>
<path id="r_bow" d="M327 75.0411C313.033 58.3388 296.667 69.6724 273 92.7368" stroke="black" stroke-width="7.99608" stroke-miterlimit="8" stroke-linecap="round"/>
</g>
<g id="u">
<path id="u_2" d="M222 68C222 102.859 222 110.254 222 126.099C222 141.944 202 143 192.5 143C183 143 162 141.944 162 126.099C162 110.254 162 102.859 162 68" stroke="black" stroke-width="7.99608" stroke-miterlimit="8" stroke-linecap="square" stroke-linejoin="round"/>
</g>
<g id="m">
<path id="m_foot_middle" d="M74.9999 142.3H94.9999" stroke="black" stroke-width="7.99608" stroke-miterlimit="8" stroke-linecap="round"/>
<path id="m_foot_left" d="M35 142.3H41.6779" stroke="black" stroke-width="7.99608" stroke-miterlimit="8" stroke-linecap="round"/>
<path id="m_foot_right" d="M128 142.3H134.678" stroke="black" stroke-width="7.99608" stroke-miterlimit="8" stroke-linecap="round"/>
<path id="m_bow_right" d="M84.9999 142.284C85 103.284 85.0964 100.378 85 81.2836C84.9036 62.1892 123.913 62.2885 124 81.2836C124.087 100.279 124 103.284 124 142.284" stroke="black" stroke-width="7.99608" stroke-miterlimit="8" stroke-linecap="square"/>
<path id="m_bow_left" d="M45.9999 142.284C46 103.284 46.0964 100.378 46 81.2836C45.9036 62.1892 84.9125 62.2885 85 81.2836C85.0875 100.279 85 103.284 85 142.284" stroke="black" stroke-width="7.99608" stroke-miterlimit="8" stroke-linecap="square"/>
</g>
</g>
<path id="cursor" d="M560 14V165.107" stroke="black" stroke-width="7.99608" stroke-miterlimit="8" stroke-linecap="round"/>
</g>
</g>
<defs>
<clipPath id="clip0_1_62">
<rect width="580" height="180" fill="white"/>
</clipPath>
</defs>
</svg>
