<svg class="dark:invert max-w-[80%]" id="i_want_to_know" viewBox="0 0 494 522" fill="none" xmlns="http://www.w3.org/2000/svg">

<g clip-path="url(#clip0_6_117)">
    <path d="M261.41 281.075L387.747 119.988Z" fill="black"/>
    <path d="M261.41 281.075L387.747 119.988" stroke="black" stroke-width="5"/>
    <path d="M386 122L393.288 127.845L403.09 100.425L378.796 116.479L386 122Z" fill="black"/>
    <path d="M351.643 144.957L276.437 240.85C274.919 242.784 275.451 245.734 277.624 247.438L290.214 257.312C292.387 259.016 295.378 258.829 296.895 256.895L372.102 161.002C373.619 159.068 373.088 156.118 370.915 154.414L358.325 144.54C356.152 142.836 353.161 143.022 351.643 144.957Z" fill="white"/>
    <path d="M293.875 249.243L284.071 243.312L284.919 242.23L291.598 246.425L291.983 246.668L291.667 246.311L286.356 240.398L287.132 239.408L294.151 243.156L294.567 243.373L294.227 243.046L288.574 237.57L289.418 236.494L297.515 244.602L296.604 245.764L289.381 241.857L288.958 241.625L289.286 241.991L294.791 248.075L293.875 249.243ZM300.472 236.059L298.129 239.047L299.882 241.584L298.99 242.721L292.305 232.812L293.053 231.859L304.231 236.039L303.344 237.17L300.472 236.059ZM297.38 237.963L299.246 235.584L294.435 233.718L297.38 237.963ZM309.766 228.982L308.859 230.137L299.447 228.365L306.121 233.629L305.219 234.779L296.269 227.759L297.175 226.603L306.575 228.366L299.913 223.111L300.815 221.962L309.766 228.982ZM308.054 214.732L305.884 217.498L313.864 223.756L312.996 224.863L305.017 218.605L302.847 221.371L301.876 220.609L307.083 213.97L308.054 214.732ZM322.487 214.673L318.066 220.31L317.137 219.582L321.558 213.945L322.487 214.673ZM319.914 199.609L317.745 202.376L325.724 208.634L324.856 209.74L316.877 203.482L314.707 206.249L313.736 205.487L318.943 198.848L319.914 199.609ZM329.696 195.416C330.013 195.671 330.314 195.954 330.6 196.264C330.885 196.567 331.138 196.891 331.357 197.235C331.577 197.58 331.752 197.939 331.883 198.313C332.016 198.682 332.091 199.059 332.108 199.443C332.125 199.827 332.073 200.213 331.953 200.602C331.833 200.984 331.628 201.359 331.338 201.728C331.049 202.097 330.732 202.388 330.387 202.6C330.04 202.805 329.679 202.945 329.302 203.021C328.926 203.096 328.54 203.115 328.146 203.077C327.748 203.036 327.355 202.95 326.969 202.819C326.578 202.691 326.201 202.527 325.835 202.327C325.47 202.126 325.125 201.903 324.803 201.656L323.782 200.856C323.466 200.601 323.165 200.322 322.88 200.019C322.593 199.708 322.342 199.379 322.126 199.03C321.906 198.686 321.729 198.329 321.596 197.959C321.461 197.582 321.383 197.2 321.362 196.813C321.346 196.43 321.398 196.047 321.519 195.665C321.638 195.276 321.843 194.897 322.132 194.528C322.422 194.159 322.741 193.87 323.09 193.661C323.436 193.448 323.797 193.305 324.173 193.229C324.55 193.154 324.936 193.139 325.331 193.184C325.725 193.222 326.117 193.304 326.507 193.431C326.894 193.563 327.27 193.732 327.637 193.94C328.006 194.144 328.353 194.369 328.676 194.616L329.696 195.416ZM327.781 195.731C327.565 195.568 327.332 195.409 327.083 195.254C326.83 195.095 326.567 194.954 326.292 194.832C326.019 194.716 325.741 194.628 325.459 194.565C325.173 194.5 324.892 194.478 324.616 194.5C324.345 194.526 324.085 194.603 323.838 194.734C323.586 194.86 323.355 195.057 323.147 195.323C322.941 195.586 322.806 195.854 322.743 196.129C322.68 196.404 322.668 196.676 322.708 196.946C322.752 197.218 322.84 197.486 322.972 197.748C323.1 198.007 323.254 198.254 323.435 198.488C323.616 198.73 323.812 198.956 324.023 199.168C324.233 199.373 324.441 199.559 324.647 199.727L325.68 200.537C325.892 200.697 326.125 200.856 326.378 201.015C326.634 201.169 326.899 201.304 327.172 201.42C327.45 201.538 327.732 201.63 328.018 201.696C328.304 201.761 328.583 201.781 328.854 201.756C329.13 201.734 329.394 201.659 329.645 201.532C329.897 201.405 330.127 201.209 330.336 200.942C330.545 200.676 330.681 200.405 330.745 200.131C330.811 199.852 330.822 199.576 330.778 199.303C330.735 199.037 330.648 198.777 330.517 198.522C330.385 198.26 330.228 198.008 330.047 197.767C329.867 197.532 329.668 197.314 329.45 197.11C329.236 196.902 329.024 196.713 328.814 196.541L327.781 195.731ZM340.277 191.989L335.856 197.626L334.928 196.898L339.349 191.261L340.277 191.989ZM338.477 183.816L338.827 185.699L341.851 188.071L340.94 189.233L331.989 182.213L332.901 181.051L337.271 184.479L336.869 182.763L335.639 177.559L336.724 176.176L338.186 182.376L345.838 182.987L344.754 184.37L338.477 183.816ZM351.277 176.052L350.37 177.208L340.958 175.436L347.632 180.7L346.73 181.849L337.78 174.83L338.686 173.674L348.086 175.437L341.425 170.182L342.326 169.033L351.277 176.052ZM353.417 165.171C353.733 165.426 354.034 165.709 354.321 166.019C354.606 166.322 354.858 166.646 355.078 166.99C355.298 167.335 355.473 167.694 355.603 168.067C355.737 168.437 355.812 168.814 355.829 169.198C355.846 169.581 355.794 169.968 355.674 170.357C355.553 170.739 355.348 171.114 355.059 171.483C354.77 171.852 354.452 172.142 354.107 172.355C353.761 172.56 353.4 172.7 353.023 172.775C352.646 172.851 352.261 172.869 351.867 172.832C351.469 172.791 351.076 172.705 350.689 172.573C350.299 172.446 349.921 172.282 349.556 172.082C349.19 171.881 348.846 171.657 348.523 171.411L347.503 170.61C347.186 170.356 346.885 170.077 346.6 169.774C346.314 169.463 346.063 169.134 345.846 168.785C345.627 168.441 345.45 168.084 345.316 167.714C345.182 167.337 345.104 166.955 345.083 166.568C345.066 166.184 345.118 165.802 345.239 165.42C345.359 165.031 345.564 164.652 345.853 164.283C346.142 163.914 346.462 163.625 346.811 163.416C347.156 163.203 347.517 163.059 347.894 162.984C348.271 162.909 348.656 162.894 349.051 162.939C349.445 162.977 349.838 163.059 350.228 163.186C350.614 163.318 350.991 163.487 351.357 163.695C351.727 163.899 352.073 164.124 352.396 164.371L353.417 165.171ZM351.502 165.486C351.285 165.323 351.053 165.164 350.804 165.008C350.551 164.85 350.287 164.709 350.013 164.587C349.739 164.471 349.461 164.382 349.179 164.32C348.893 164.255 348.612 164.233 348.337 164.255C348.065 164.28 347.806 164.358 347.558 164.488C347.306 164.615 347.076 164.812 346.867 165.078C346.662 165.341 346.527 165.609 346.464 165.884C346.401 166.158 346.389 166.431 346.429 166.7C346.473 166.973 346.561 167.241 346.693 167.503C346.821 167.762 346.975 168.009 347.155 168.243C347.337 168.484 347.533 168.711 347.744 168.923C347.954 169.128 348.162 169.314 348.368 169.482L349.401 170.292C349.613 170.452 349.845 170.611 350.098 170.77C350.354 170.924 350.619 171.059 350.893 171.174C351.171 171.293 351.453 171.385 351.739 171.45C352.025 171.516 352.304 171.536 352.575 171.511C352.851 171.488 353.114 171.414 353.366 171.287C353.618 171.16 353.848 170.964 354.057 170.697C354.266 170.431 354.402 170.16 354.465 169.885C354.532 169.607 354.543 169.331 354.499 169.058C354.456 168.792 354.368 168.532 354.237 168.277C354.106 168.015 353.949 167.763 353.768 167.521C353.587 167.287 353.388 167.068 353.171 166.865C352.956 166.657 352.744 166.467 352.534 166.296L351.502 165.486ZM359.106 166.069L349.303 160.137L350.151 159.055L356.829 163.251L357.215 163.493L356.899 163.136L351.588 157.224L352.364 156.234L359.383 159.981L359.799 160.198L359.459 159.872L353.806 154.396L354.649 153.32L362.747 161.428L361.835 162.59L354.613 158.683L354.19 158.45L354.518 158.817L360.023 164.901L359.106 166.069Z" fill="black"/>
    <path d="M179.319 364.839L118.931 414.2Z" fill="black"/>
    <path d="M179.319 364.839L118.931 414.2" stroke="black" stroke-width="5"/>
    <path d="M121 412.5L115.242 405.322L99.6811 429.935L126.897 419.582L121 412.5Z" fill="black"/>
    <path d="M156.268 366.891L123.408 393.75C121.625 395.208 121.596 398.123 123.344 400.261L133.47 412.649C135.217 414.787 138.08 415.338 139.863 413.881L172.723 387.022C174.506 385.564 174.535 382.649 172.787 380.511L162.661 368.123C160.914 365.985 158.051 365.433 156.268 366.891Z" fill="white"/>
    <path d="M136.729 401.205L136.658 403.119L139.091 406.095L137.948 407.029L130.749 398.222L131.892 397.288L135.407 401.588L135.39 399.827L135.328 394.479L136.689 393.367L136.759 399.736L144.093 402.006L142.732 403.118L136.729 401.205ZM150.917 396.429L149.779 397.358L140.982 393.57L146.344 400.166L145.212 401.091L138.014 392.284L139.151 391.354L147.938 395.13L142.586 388.546L143.718 387.621L150.917 396.429ZM155.384 386.279C155.637 386.596 155.869 386.938 156.081 387.303C156.293 387.662 156.468 388.033 156.607 388.417C156.746 388.801 156.839 389.19 156.884 389.583C156.934 389.973 156.925 390.357 156.857 390.735C156.79 391.113 156.655 391.479 156.453 391.833C156.252 392.179 155.969 392.5 155.607 392.797C155.244 393.093 154.87 393.308 154.487 393.439C154.104 393.564 153.721 393.622 153.337 393.613C152.953 393.604 152.573 393.538 152.197 393.415C151.817 393.288 151.453 393.118 151.104 392.905C150.751 392.696 150.418 392.453 150.106 392.177C149.793 391.902 149.506 391.608 149.245 391.297L148.424 390.293C148.171 389.975 147.938 389.637 147.726 389.279C147.515 388.914 147.342 388.537 147.207 388.15C147.068 387.766 146.973 387.379 146.924 386.989C146.875 386.591 146.882 386.202 146.947 385.819C147.014 385.441 147.149 385.079 147.35 384.733C147.552 384.379 147.835 384.054 148.198 383.758C148.561 383.461 148.935 383.249 149.322 383.121C149.706 382.989 150.089 382.928 150.473 382.937C150.857 382.946 151.237 383.015 151.613 383.146C151.989 383.269 152.353 383.435 152.706 383.644C153.055 383.857 153.385 384.105 153.698 384.388C154.014 384.668 154.302 384.963 154.563 385.274L155.384 386.279ZM153.447 386.167C153.271 385.961 153.079 385.755 152.87 385.548C152.658 385.338 152.432 385.144 152.191 384.964C151.949 384.791 151.697 384.644 151.436 384.522C151.171 384.395 150.901 384.312 150.628 384.274C150.357 384.239 150.087 384.258 149.817 384.331C149.543 384.4 149.276 384.541 149.014 384.756C148.755 384.967 148.566 385.199 148.444 385.453C148.322 385.708 148.251 385.971 148.231 386.243C148.215 386.519 148.242 386.799 148.313 387.084C148.381 387.365 148.478 387.639 148.603 387.907C148.727 388.182 148.869 388.446 149.028 388.699C149.189 388.945 149.351 389.172 149.515 389.381L150.346 390.397C150.518 390.6 150.71 390.806 150.922 391.016C151.138 391.223 151.367 391.412 151.609 391.585C151.854 391.761 152.109 391.912 152.374 392.039C152.639 392.165 152.906 392.246 153.177 392.281C153.45 392.319 153.724 392.304 153.997 392.235C154.271 392.167 154.538 392.025 154.801 391.811C155.063 391.597 155.255 391.362 155.376 391.108C155.502 390.851 155.573 390.584 155.59 390.308C155.606 390.039 155.578 389.766 155.506 389.489C155.435 389.204 155.337 388.924 155.213 388.649C155.088 388.381 154.942 388.124 154.774 387.877C154.61 387.628 154.445 387.396 154.277 387.183L153.447 386.167ZM160.74 388.399L152.47 380.467L153.535 379.597L159.134 385.151L159.457 385.472L159.227 385.055L155.337 378.123L156.311 377.327L162.341 382.519L162.699 382.822L162.439 382.429L158.12 375.849L159.179 374.984L165.307 384.666L164.164 385.601L157.971 380.209L157.609 379.89L157.849 380.319L161.889 387.46L160.74 388.399Z" fill="black"/>
    <path d="M282.302 341.554L358.052 360.132Z" fill="black"/>
    <path d="M282.302 341.554L358.052 360.132" stroke="black" stroke-width="5"/>
    <path d="M355.5 360L353.175 368.417L382.198 366.054L357.562 350.531L355.5 360Z" fill="black"/>
    <path d="M340.618 342.471L299.938 332.494C297.73 331.952 295.407 333.688 294.75 336.37L290.938 351.909C290.281 354.591 291.537 357.204 293.745 357.746L334.425 367.723C336.632 368.264 338.955 366.529 339.613 363.847L343.424 348.307C344.082 345.626 342.825 343.012 340.618 342.471Z" fill="white"/>
    <path d="M302.384 346.968L300.812 348.063L299.896 351.796L298.462 351.445L301.172 340.397L302.606 340.749L301.283 346.143L302.68 345.07L306.916 341.806L308.623 342.224L303.575 346.11L306.171 353.335L304.464 352.917L302.384 346.968ZM314.73 355.434L313.304 355.085L311.041 345.778L308.994 354.028L307.575 353.68L310.285 342.632L311.711 342.982L313.977 352.273L316.021 344.039L317.44 344.387L314.73 355.434ZM325.527 352.902C325.425 353.295 325.292 353.686 325.127 354.075C324.968 354.46 324.777 354.823 324.554 355.165C324.33 355.507 324.075 355.815 323.789 356.087C323.507 356.362 323.195 356.585 322.852 356.759C322.509 356.932 322.135 357.044 321.731 357.095C321.334 357.142 320.907 357.11 320.452 356.999C319.997 356.887 319.601 356.718 319.265 356.49C318.936 356.259 318.659 355.988 318.436 355.676C318.212 355.363 318.036 355.02 317.908 354.645C317.781 354.266 317.698 353.872 317.658 353.466C317.614 353.058 317.607 352.646 317.64 352.23C317.672 351.815 317.734 351.409 317.826 351.013L318.134 349.754C318.236 349.36 318.367 348.971 318.525 348.587C318.69 348.198 318.887 347.833 319.115 347.492C319.339 347.15 319.591 346.842 319.873 346.568C320.161 346.29 320.477 346.062 320.821 345.884C321.164 345.71 321.534 345.6 321.932 345.553C322.336 345.502 322.766 345.532 323.221 345.644C323.676 345.755 324.071 345.927 324.405 346.16C324.741 346.387 325.021 346.656 325.245 346.969C325.468 347.281 325.641 347.626 325.763 348.005C325.891 348.379 325.977 348.771 326.022 349.178C326.062 349.585 326.062 349.998 326.024 350.418C325.99 350.838 325.928 351.247 325.836 351.642L325.527 352.902ZM324.451 351.287C324.511 351.022 324.56 350.745 324.599 350.454C324.639 350.158 324.659 349.86 324.658 349.56C324.65 349.263 324.616 348.973 324.557 348.69C324.499 348.403 324.403 348.138 324.269 347.896C324.134 347.659 323.956 347.454 323.736 347.282C323.517 347.105 323.243 346.976 322.914 346.896C322.59 346.816 322.29 346.804 322.014 346.86C321.737 346.915 321.484 347.017 321.255 347.165C321.025 347.317 320.817 347.508 320.632 347.736C320.449 347.959 320.288 348.201 320.149 348.462C320.003 348.726 319.878 348.999 319.771 349.278C319.672 349.554 319.587 349.82 319.519 350.077L319.207 351.352C319.148 351.611 319.099 351.889 319.059 352.184C319.023 352.481 319.01 352.778 319.017 353.075C319.024 353.377 319.056 353.672 319.114 353.96C319.172 354.247 319.269 354.51 319.404 354.747C319.537 354.988 319.714 355.198 319.933 355.375C320.152 355.552 320.427 355.681 320.755 355.762C321.084 355.842 321.387 355.855 321.663 355.799C321.945 355.745 322.201 355.642 322.431 355.489C322.655 355.34 322.857 355.154 323.035 354.929C323.22 354.701 323.385 354.455 323.53 354.19C323.669 353.929 323.787 353.658 323.883 353.375C323.984 353.095 324.069 352.823 324.138 352.561L324.451 351.287ZM327.053 358.457L328.419 347.08L329.754 347.407L328.683 355.22L328.62 355.672L328.815 355.237L332.016 347.962L333.237 348.261L332.714 356.201L332.687 356.669L332.845 356.225L335.506 348.818L336.834 349.143L332.781 359.862L331.347 359.51L331.932 351.32L331.97 350.838L331.771 351.288L328.494 358.81L327.053 358.457Z" fill="black"/>
    <path d="M195.5 276.405L137.023 175.119Z" fill="black"/>
    <path d="M195.5 276.405L137.023 175.119" stroke="black" stroke-width="5"/>
    <path d="M138.5 177.5L146.379 172.908L124.592 153.588L130.43 182.116L138.5 177.5Z" fill="black"/>
    <path d="M193.032 246.13L161.758 191.961C160.447 189.691 157.446 188.97 155.055 190.351L141.198 198.351C138.807 199.732 137.93 202.691 139.241 204.961L170.516 259.13C171.826 261.4 174.827 262.121 177.219 260.74L191.075 252.74C193.466 251.359 194.343 248.4 193.032 246.13Z" fill="white"/>
    <path d="M158.347 200.84L154.347 205.287L160.273 204.175L161.171 205.731L151.32 211.419L150.617 210.201L154.548 207.931L158.72 205.658L152.365 206.9L151.951 206.183L156.148 201.532L152.236 203.926L148.305 206.196L147.601 204.978L157.453 199.29L158.347 200.84ZM157.773 216.705L155.875 213.417L152.867 214.098L152.144 212.846L163.831 210.339L164.437 211.387L156.391 220.201L155.672 218.956L157.773 216.705ZM157.159 213.126L158.671 215.745L162.197 211.977L157.159 213.126ZM162.779 225.516C163.081 225.341 163.295 225.124 163.422 224.864C163.552 224.609 163.626 224.332 163.645 224.032C163.66 223.735 163.639 223.428 163.583 223.112C163.529 222.8 163.472 222.502 163.41 222.219C163.323 221.807 163.254 221.374 163.203 220.922C163.16 220.472 163.166 220.036 163.222 219.612C163.281 219.182 163.411 218.782 163.613 218.413C163.821 218.045 164.138 217.739 164.562 217.495C164.986 217.25 165.418 217.124 165.859 217.116C166.302 217.113 166.726 217.196 167.13 217.365C167.535 217.534 167.906 217.777 168.245 218.093C168.588 218.406 168.872 218.756 169.096 219.144C169.343 219.573 169.509 220.027 169.594 220.507C169.683 220.985 169.688 221.451 169.608 221.907C169.528 222.362 169.359 222.787 169.1 223.183C168.841 223.579 168.489 223.912 168.043 224.181L167.301 222.896C167.565 222.695 167.781 222.477 167.951 222.24C168.126 222.001 168.247 221.748 168.315 221.48C168.383 221.212 168.393 220.933 168.346 220.642C168.305 220.353 168.199 220.059 168.027 219.761C167.889 219.522 167.719 219.307 167.519 219.116C167.321 218.93 167.104 218.788 166.867 218.69C166.627 218.588 166.377 218.54 166.116 218.546C165.858 218.557 165.598 218.638 165.336 218.789C165.055 218.957 164.855 219.169 164.737 219.423C164.624 219.675 164.562 219.948 164.552 220.243C164.539 220.533 164.559 220.828 164.612 221.128C164.668 221.433 164.725 221.715 164.785 221.975C164.884 222.406 164.957 222.851 165.006 223.31C165.059 223.766 165.048 224.217 164.975 224.663C164.917 225.093 164.773 225.495 164.543 225.868C164.316 226.246 163.984 226.561 163.546 226.814C163.104 227.069 162.661 227.192 162.217 227.184C161.776 227.18 161.357 227.085 160.961 226.899C160.561 226.715 160.191 226.46 159.851 226.132C159.516 225.802 159.236 225.441 159.009 225.049C158.738 224.58 158.55 224.072 158.445 223.525C158.343 222.983 158.344 222.459 158.449 221.953C158.534 221.507 158.697 221.097 158.939 220.723C159.187 220.351 159.519 220.036 159.935 219.778L160.674 221.057C160.39 221.274 160.166 221.515 159.999 221.78C159.838 222.041 159.733 222.318 159.685 222.611C159.633 222.905 159.638 223.206 159.701 223.513C159.771 223.821 159.894 224.129 160.071 224.436C160.212 224.679 160.379 224.901 160.573 225.102C160.775 225.305 160.994 225.461 161.232 225.57C161.465 225.682 161.712 225.741 161.974 225.746C162.24 225.749 162.508 225.672 162.779 225.516ZM174.735 231.693L172.977 228.649L164.195 233.719L163.492 232.501L172.274 227.431L170.516 224.386L171.585 223.769L175.804 231.076L174.735 231.693ZM174.604 241.232L172.229 237.118L168.738 239.134L171.507 243.931L170.445 244.544L166.953 238.496L176.804 232.808L180.261 238.796L179.192 239.413L176.458 234.677L173.291 236.505L175.666 240.619L174.604 241.232ZM177.628 247.704L176.491 245.735L172.473 248.056L171.754 246.811L181.605 241.123L183.273 244.012C183.529 244.478 183.714 244.948 183.827 245.425C183.939 245.901 183.962 246.363 183.896 246.81C183.827 247.253 183.657 247.667 183.386 248.052C183.122 248.438 182.742 248.775 182.246 249.062C181.926 249.246 181.605 249.368 181.284 249.427C180.966 249.491 180.652 249.504 180.342 249.466C180.031 249.429 179.728 249.346 179.431 249.217C179.133 249.087 178.848 248.921 178.575 248.718L175.573 253.239L175.488 253.279L174.726 251.96L177.628 247.704ZM177.52 245.142L178.489 246.82C178.655 247.097 178.85 247.336 179.074 247.537C179.303 247.736 179.551 247.884 179.818 247.982C180.083 248.076 180.359 248.112 180.647 248.09C180.94 248.065 181.235 247.967 181.533 247.795C181.849 247.613 182.094 247.402 182.268 247.163C182.448 246.921 182.565 246.661 182.621 246.382C182.672 246.106 182.664 245.816 182.596 245.512C182.532 245.213 182.414 244.911 182.244 244.606L181.295 242.962L177.52 245.142Z" fill="black"/>
    <path d="M225 379.5C253.719 379.5 277 356.219 277 327.5C277 298.781 253.719 275.5 225 275.5C196.281 275.5 173 298.781 173 327.5C173 356.219 196.281 379.5 225 379.5Z" stroke="black" stroke-width="4"/>
    <path d="M213.803 310.031H236.146V314.119H227.285V342.938H236.146V347H213.803V342.938H222.461V314.119H213.803V310.031Z" fill="black"/>
    <path d="M439.5 106C468.219 106 491.5 82.7188 491.5 54C491.5 25.2812 468.219 2 439.5 2C410.781 2 387.5 25.2812 387.5 54C387.5 82.7188 410.781 106 439.5 106Z" stroke="black" stroke-width="4"/>
    <path d="M404.029 43.0215V47.8828H411.674V50.5361H404.029V61.4463C404.029 62.2256 404.128 62.8688 404.326 63.376C404.524 63.8831 404.796 64.2852 405.143 64.582C405.489 64.8913 405.885 65.1077 406.33 65.2314C406.788 65.3551 407.27 65.417 407.777 65.417C408.148 65.417 408.532 65.3984 408.928 65.3613C409.324 65.3118 409.713 65.2562 410.097 65.1943C410.468 65.1325 410.814 65.0706 411.136 65.0088C411.47 64.9346 411.742 64.8727 411.952 64.8232L412.435 67.2539C412.15 67.4271 411.804 67.5817 411.396 67.7178C410.987 67.8415 410.542 67.9466 410.06 68.0332C409.577 68.1322 409.064 68.2064 408.52 68.2559C407.988 68.3053 407.456 68.3301 406.924 68.3301C406.033 68.3301 405.198 68.2064 404.419 67.959C403.652 67.6992 402.984 67.291 402.415 66.7344C401.846 66.1901 401.395 65.485 401.061 64.6191C400.739 63.7409 400.578 62.6833 400.578 61.4463V50.5361H395.309V47.8828H400.578V43.0215H404.029ZM422.157 50.8701C422.429 50.4619 422.732 50.0908 423.066 49.7568C423.4 49.4105 423.753 49.1074 424.124 48.8477C424.718 48.4147 425.367 48.0869 426.072 47.8643C426.79 47.6416 427.55 47.5241 428.354 47.5117C429.406 47.5117 430.358 47.6663 431.212 47.9756C432.078 48.2725 432.814 48.7425 433.42 49.3857C434.026 50.029 434.49 50.8454 434.812 51.835C435.146 52.8122 435.312 53.9749 435.312 55.3232V67.959H431.88V55.2861C431.88 54.4945 431.787 53.8018 431.602 53.208C431.416 52.6019 431.144 52.1009 430.785 51.7051C430.402 51.2721 429.919 50.9505 429.338 50.7402C428.757 50.5176 428.089 50.4124 427.334 50.4248C426.715 50.4248 426.128 50.5114 425.571 50.6846C425.015 50.8577 424.501 51.1051 424.031 51.4268C423.66 51.6742 423.314 51.9648 422.992 52.2988C422.683 52.6204 422.405 52.9792 422.157 53.375V67.959H418.725V39.459H422.157V50.8701ZM454.739 67.959C454.603 67.6992 454.492 67.3776 454.405 66.9941C454.331 66.5983 454.275 66.1901 454.238 65.7695C453.892 66.1159 453.502 66.4437 453.069 66.7529C452.649 67.0622 452.185 67.3343 451.678 67.5693C451.158 67.8044 450.608 67.9899 450.026 68.126C449.445 68.262 448.826 68.3301 448.171 68.3301C447.107 68.3301 446.142 68.1755 445.276 67.8662C444.423 67.557 443.699 67.1364 443.105 66.6045C442.499 66.085 442.029 65.4665 441.695 64.749C441.374 64.0192 441.213 63.2337 441.213 62.3926C441.213 61.2917 441.429 60.3268 441.862 59.498C442.308 58.6693 442.932 57.9766 443.736 57.4199C444.54 56.8757 445.505 56.4674 446.631 56.1953C447.769 55.9232 449.037 55.7871 450.435 55.7871H454.183V54.21C454.183 53.6038 454.071 53.0596 453.849 52.5771C453.626 52.0947 453.311 51.6803 452.902 51.334C452.494 51 451.993 50.7402 451.399 50.5547C450.818 50.3691 450.162 50.2764 449.433 50.2764C448.752 50.2764 448.14 50.363 447.596 50.5361C447.064 50.7093 446.612 50.9382 446.241 51.2227C445.87 51.5072 445.579 51.8473 445.369 52.2432C445.171 52.6266 445.072 53.0286 445.072 53.4492H441.621C441.633 52.7194 441.819 52.002 442.178 51.2969C442.549 50.5918 443.081 49.9548 443.773 49.3857C444.454 48.8291 445.283 48.3776 446.26 48.0312C447.249 47.6849 448.369 47.5117 449.618 47.5117C450.756 47.5117 451.814 47.654 452.791 47.9385C453.768 48.2106 454.616 48.625 455.333 49.1816C456.038 49.7507 456.595 50.4557 457.003 51.2969C457.411 52.138 457.615 53.1214 457.615 54.2471V63.5801C457.615 64.248 457.677 64.9593 457.801 65.7139C457.924 66.4561 458.098 67.1055 458.32 67.6621V67.959H454.739ZM448.672 65.3428C449.34 65.3428 449.965 65.2562 450.546 65.083C451.127 64.9098 451.659 64.681 452.142 64.3965C452.612 64.112 453.02 63.7904 453.366 63.4316C453.713 63.0605 453.985 62.6771 454.183 62.2812V58.2178H450.991C449.804 58.2178 448.765 58.3229 447.874 58.5332C446.996 58.7311 446.297 59.0404 445.777 59.4609C445.406 59.7578 445.122 60.1104 444.924 60.5186C444.738 60.9268 444.646 61.3906 444.646 61.9102C444.646 62.4049 444.726 62.8626 444.887 63.2832C445.06 63.7038 445.313 64.0625 445.647 64.3594C445.981 64.6686 446.402 64.9098 446.909 65.083C447.416 65.2562 448.004 65.3428 448.672 65.3428ZM472.496 43.0215V47.8828H480.141V50.5361H472.496V61.4463C472.496 62.2256 472.595 62.8688 472.793 63.376C472.991 63.8831 473.263 64.2852 473.609 64.582C473.956 64.8913 474.352 65.1077 474.797 65.2314C475.255 65.3551 475.737 65.417 476.244 65.417C476.615 65.417 476.999 65.3984 477.395 65.3613C477.79 65.3118 478.18 65.2562 478.563 65.1943C478.935 65.1325 479.281 65.0706 479.603 65.0088C479.937 64.9346 480.209 64.8727 480.419 64.8232L480.901 67.2539C480.617 67.4271 480.271 67.5817 479.862 67.7178C479.454 67.8415 479.009 67.9466 478.526 68.0332C478.044 68.1322 477.531 68.2064 476.986 68.2559C476.454 68.3053 475.923 68.3301 475.391 68.3301C474.5 68.3301 473.665 68.2064 472.886 67.959C472.119 67.6992 471.451 67.291 470.882 66.7344C470.313 66.1901 469.861 65.485 469.527 64.6191C469.206 63.7409 469.045 62.6833 469.045 61.4463V50.5361H463.775V47.8828H469.045V43.0215H472.496Z" fill="black"/>
    <path d="M54 519.274C82.7188 519.274 106 495.993 106 467.274C106 438.555 82.7188 415.274 54 415.274C25.2812 415.274 2 438.555 2 467.274C2 495.993 25.2812 519.274 54 519.274Z" stroke="black" stroke-width="4"/>
    <path d="M19.0273 455.216V460.077H26.6719V462.73H19.0273V473.641C19.0273 474.42 19.1263 475.063 19.3242 475.57C19.5221 476.077 19.7943 476.479 20.1406 476.776C20.487 477.085 20.8828 477.302 21.3281 477.426C21.7858 477.549 22.2682 477.611 22.7754 477.611C23.1465 477.611 23.5299 477.593 23.9258 477.556C24.3216 477.506 24.7113 477.45 25.0947 477.389C25.4658 477.327 25.8122 477.265 26.1338 477.203C26.4678 477.129 26.7399 477.067 26.9502 477.017L27.4326 479.448C27.1481 479.621 26.8018 479.776 26.3936 479.912C25.9854 480.036 25.54 480.141 25.0576 480.227C24.5752 480.326 24.0618 480.401 23.5176 480.45C22.9857 480.5 22.4538 480.524 21.9219 480.524C21.0312 480.524 20.1963 480.401 19.417 480.153C18.6501 479.893 17.9821 479.485 17.4131 478.929C16.8441 478.384 16.3926 477.679 16.0586 476.813C15.737 475.935 15.5762 474.877 15.5762 473.641V462.73H10.3066V460.077H15.5762V455.216H19.0273ZM37.1553 463.064C37.4274 462.656 37.7305 462.285 38.0645 461.951C38.3984 461.605 38.751 461.302 39.1221 461.042C39.7158 460.609 40.3652 460.281 41.0703 460.058C41.7878 459.836 42.5485 459.718 43.3525 459.706C44.404 459.706 45.3564 459.861 46.21 460.17C47.0758 460.467 47.8118 460.937 48.418 461.58C49.0241 462.223 49.488 463.04 49.8096 464.029C50.1436 465.006 50.3105 466.169 50.3105 467.517V480.153H46.8779V467.48C46.8779 466.689 46.7852 465.996 46.5996 465.402C46.4141 464.796 46.1419 464.295 45.7832 463.899C45.3997 463.466 44.9173 463.145 44.3359 462.934C43.7546 462.712 43.0866 462.607 42.332 462.619C41.7135 462.619 41.126 462.706 40.5693 462.879C40.0127 463.052 39.4993 463.299 39.0293 463.621C38.6582 463.868 38.3118 464.159 37.9902 464.493C37.681 464.815 37.4027 465.173 37.1553 465.569V480.153H33.7227V451.653H37.1553V463.064ZM57.083 460.077H67.3438V477.184H73.8936V480.153H57.083V477.184H63.9111V463.064H57.083V460.077ZM63.4658 454.807C63.4658 454.511 63.5091 454.232 63.5957 453.973C63.6947 453.713 63.8431 453.49 64.041 453.305C64.2018 453.144 64.4059 453.02 64.6533 452.933C64.9131 452.835 65.2038 452.785 65.5254 452.785C65.847 452.785 66.1315 452.835 66.3789 452.933C66.6263 453.02 66.8304 453.144 66.9912 453.305C67.1891 453.478 67.3376 453.694 67.4365 453.954C67.5355 454.214 67.585 454.498 67.585 454.807C67.585 455.364 67.4118 455.828 67.0654 456.199C66.7191 456.57 66.2057 456.756 65.5254 456.756C64.8327 456.756 64.3132 456.57 63.9668 456.199C63.6328 455.828 63.4658 455.364 63.4658 454.807ZM92.708 474.828C92.708 474.42 92.6276 474.055 92.4668 473.733C92.306 473.399 92.0339 473.096 91.6504 472.824C91.2669 472.552 90.7598 472.305 90.1289 472.082C89.498 471.847 88.7126 471.637 87.7725 471.451C86.6221 471.216 85.5706 470.932 84.6182 470.598C83.6781 470.264 82.874 469.862 82.2061 469.391C81.5257 468.934 81 468.396 80.6289 467.777C80.2578 467.146 80.0723 466.417 80.0723 465.588C80.0723 464.771 80.264 464.011 80.6475 463.306C81.0309 462.588 81.569 461.963 82.2617 461.432C82.9544 460.9 83.777 460.479 84.7295 460.17C85.6943 459.861 86.752 459.706 87.9023 459.706C89.1393 459.706 90.2526 459.867 91.2422 460.188C92.2318 460.51 93.0729 460.955 93.7656 461.524C94.4583 462.093 94.9902 462.761 95.3613 463.528C95.7448 464.283 95.9365 465.099 95.9365 465.977H92.5039C92.5039 465.544 92.3926 465.124 92.1699 464.716C91.9473 464.295 91.638 463.924 91.2422 463.602C90.8464 463.281 90.3639 463.021 89.7949 462.823C89.2383 462.625 88.6074 462.526 87.9023 462.526C87.1725 462.526 86.5293 462.607 85.9727 462.767C85.4284 462.928 84.9769 463.145 84.6182 463.417C84.2471 463.689 83.9688 464.004 83.7832 464.363C83.5977 464.722 83.5049 465.093 83.5049 465.476C83.5049 465.872 83.5791 466.225 83.7275 466.534C83.876 466.843 84.1357 467.122 84.5068 467.369C84.8656 467.616 85.348 467.839 85.9541 468.037C86.5726 468.235 87.3519 468.427 88.292 468.612C89.529 468.872 90.6361 469.175 91.6133 469.521C92.5905 469.855 93.4131 470.257 94.0811 470.727C94.749 471.21 95.2562 471.766 95.6025 472.397C95.9613 473.028 96.1406 473.758 96.1406 474.587C96.1406 475.477 95.9365 476.288 95.5283 477.017C95.1325 477.747 94.5758 478.372 93.8584 478.891C93.141 479.411 92.2812 479.813 91.2793 480.098C90.2773 480.382 89.1826 480.524 87.9951 480.524C86.6344 480.524 85.4222 480.345 84.3584 479.986C83.2946 479.615 82.3978 479.127 81.668 478.52C80.9258 477.927 80.3568 477.234 79.9609 476.442C79.5775 475.651 79.3857 474.828 79.3857 473.974H82.8184C82.8678 474.68 83.0534 475.273 83.375 475.756C83.709 476.238 84.1234 476.628 84.6182 476.925C85.1006 477.222 85.6387 477.432 86.2324 477.556C86.8262 477.679 87.4137 477.741 87.9951 477.741C88.9105 477.741 89.7083 477.636 90.3887 477.426C91.069 477.203 91.6009 476.9 91.9844 476.516C92.2194 476.281 92.3988 476.022 92.5225 475.737C92.6462 475.453 92.708 475.15 92.708 474.828Z" fill="black"/>
    <path d="M439.5 432.108C468.219 432.108 491.5 408.827 491.5 380.108C491.5 351.389 468.219 328.108 439.5 328.108C410.781 328.108 387.5 351.389 387.5 380.108C387.5 408.827 410.781 432.108 439.5 432.108Z" stroke="black" stroke-width="4"/>
    <path d="M401.031 371.03V375.124H407.469V377.358H401.031V386.546C401.031 387.202 401.115 387.743 401.281 388.171C401.448 388.598 401.677 388.936 401.969 389.186C402.26 389.447 402.594 389.629 402.969 389.733C403.354 389.837 403.76 389.889 404.188 389.889C404.5 389.889 404.823 389.874 405.156 389.842C405.49 389.801 405.818 389.754 406.141 389.702C406.453 389.65 406.745 389.598 407.016 389.546C407.297 389.483 407.526 389.431 407.703 389.389L408.109 391.436C407.87 391.582 407.578 391.712 407.234 391.827C406.891 391.931 406.516 392.019 406.109 392.092C405.703 392.176 405.271 392.238 404.812 392.28C404.365 392.322 403.917 392.342 403.469 392.342C402.719 392.342 402.016 392.238 401.359 392.03C400.714 391.811 400.151 391.467 399.672 390.999C399.193 390.54 398.812 389.947 398.531 389.217C398.26 388.478 398.125 387.587 398.125 386.546V377.358H393.688V375.124H398.125V371.03H401.031ZM416.297 377.639C416.526 377.296 416.781 376.983 417.062 376.702C417.344 376.41 417.641 376.155 417.953 375.936C418.453 375.572 419 375.296 419.594 375.108C420.198 374.921 420.839 374.822 421.516 374.811C422.401 374.811 423.203 374.941 423.922 375.202C424.651 375.452 425.271 375.848 425.781 376.389C426.292 376.931 426.682 377.618 426.953 378.452C427.234 379.275 427.375 380.254 427.375 381.389V392.03H424.484V381.358C424.484 380.691 424.406 380.108 424.25 379.608C424.094 379.098 423.865 378.676 423.562 378.342C423.24 377.978 422.833 377.707 422.344 377.53C421.854 377.342 421.292 377.254 420.656 377.264C420.135 377.264 419.641 377.337 419.172 377.483C418.703 377.629 418.271 377.837 417.875 378.108C417.562 378.316 417.271 378.561 417 378.842C416.74 379.113 416.505 379.415 416.297 379.749V392.03H413.406V368.03H416.297V377.639ZM440.094 392.342C438.906 392.342 437.812 392.139 436.812 391.733C435.823 391.327 434.974 390.759 434.266 390.03C433.557 389.301 433.005 388.436 432.609 387.436C432.214 386.436 432.016 385.348 432.016 384.171V383.514C432.016 382.15 432.234 380.931 432.672 379.858C433.109 378.775 433.693 377.858 434.422 377.108C435.141 376.368 435.958 375.801 436.875 375.405C437.802 375.009 438.75 374.811 439.719 374.811C440.938 374.811 442 375.025 442.906 375.452C443.823 375.868 444.583 376.447 445.188 377.186C445.792 377.936 446.24 378.816 446.531 379.827C446.833 380.837 446.984 381.931 446.984 383.108V384.405H434.906V384.514C434.979 385.337 435.141 386.061 435.391 386.686C435.651 387.311 436.005 387.863 436.453 388.342C436.911 388.853 437.464 389.254 438.109 389.546C438.755 389.837 439.469 389.983 440.25 389.983C441.281 389.983 442.198 389.775 443 389.358C443.802 388.941 444.469 388.389 445 387.702L446.766 389.077C446.203 389.931 445.359 390.691 444.234 391.358C443.12 392.014 441.74 392.342 440.094 392.342ZM439.719 377.186C439.135 377.186 438.583 377.296 438.062 377.514C437.542 377.723 437.073 378.03 436.656 378.436C436.24 378.853 435.885 379.363 435.594 379.967C435.312 380.561 435.115 381.249 435 382.03H444.094V381.889C444.094 381.368 443.995 380.811 443.797 380.217C443.599 379.613 443.323 379.092 442.969 378.655C442.615 378.217 442.167 377.863 441.625 377.592C441.094 377.322 440.458 377.186 439.719 377.186ZM463.078 387.546C463.078 387.202 463.01 386.894 462.875 386.624C462.74 386.342 462.51 386.087 462.188 385.858C461.865 385.629 461.438 385.421 460.906 385.233C460.375 385.035 459.714 384.858 458.922 384.702C457.953 384.504 457.068 384.264 456.266 383.983C455.474 383.702 454.797 383.363 454.234 382.967C453.661 382.582 453.219 382.129 452.906 381.608C452.594 381.077 452.438 380.462 452.438 379.764C452.438 379.077 452.599 378.436 452.922 377.842C453.245 377.238 453.698 376.712 454.281 376.264C454.865 375.816 455.557 375.462 456.359 375.202C457.172 374.941 458.062 374.811 459.031 374.811C460.073 374.811 461.01 374.947 461.844 375.217C462.677 375.488 463.385 375.863 463.969 376.342C464.552 376.822 465 377.384 465.312 378.03C465.635 378.665 465.797 379.353 465.797 380.092H462.906C462.906 379.728 462.812 379.374 462.625 379.03C462.438 378.676 462.177 378.363 461.844 378.092C461.51 377.822 461.104 377.603 460.625 377.436C460.156 377.269 459.625 377.186 459.031 377.186C458.417 377.186 457.875 377.254 457.406 377.389C456.948 377.525 456.568 377.707 456.266 377.936C455.953 378.165 455.719 378.431 455.562 378.733C455.406 379.035 455.328 379.348 455.328 379.671C455.328 380.004 455.391 380.301 455.516 380.561C455.641 380.822 455.859 381.056 456.172 381.264C456.474 381.473 456.88 381.66 457.391 381.827C457.911 381.993 458.568 382.155 459.359 382.311C460.401 382.53 461.333 382.785 462.156 383.077C462.979 383.358 463.672 383.697 464.234 384.092C464.797 384.499 465.224 384.967 465.516 385.499C465.818 386.03 465.969 386.644 465.969 387.342C465.969 388.092 465.797 388.775 465.453 389.389C465.12 390.004 464.651 390.53 464.047 390.967C463.443 391.405 462.719 391.743 461.875 391.983C461.031 392.223 460.109 392.342 459.109 392.342C457.964 392.342 456.943 392.191 456.047 391.889C455.151 391.577 454.396 391.165 453.781 390.655C453.156 390.155 452.677 389.572 452.344 388.905C452.021 388.238 451.859 387.546 451.859 386.827H454.75C454.792 387.421 454.948 387.921 455.219 388.327C455.5 388.733 455.849 389.061 456.266 389.311C456.672 389.561 457.125 389.738 457.625 389.842C458.125 389.947 458.62 389.999 459.109 389.999C459.88 389.999 460.552 389.91 461.125 389.733C461.698 389.546 462.146 389.29 462.469 388.967C462.667 388.769 462.818 388.551 462.922 388.311C463.026 388.072 463.078 387.816 463.078 387.546ZM478.531 392.342C477.344 392.342 476.25 392.139 475.25 391.733C474.26 391.327 473.411 390.759 472.703 390.03C471.995 389.301 471.443 388.436 471.047 387.436C470.651 386.436 470.453 385.348 470.453 384.171V383.514C470.453 382.15 470.672 380.931 471.109 379.858C471.547 378.775 472.13 377.858 472.859 377.108C473.578 376.368 474.396 375.801 475.312 375.405C476.24 375.009 477.188 374.811 478.156 374.811C479.375 374.811 480.438 375.025 481.344 375.452C482.26 375.868 483.021 376.447 483.625 377.186C484.229 377.936 484.677 378.816 484.969 379.827C485.271 380.837 485.422 381.931 485.422 383.108V384.405H473.344V384.514C473.417 385.337 473.578 386.061 473.828 386.686C474.089 387.311 474.443 387.863 474.891 388.342C475.349 388.853 475.901 389.254 476.547 389.546C477.193 389.837 477.906 389.983 478.688 389.983C479.719 389.983 480.635 389.775 481.438 389.358C482.24 388.941 482.906 388.389 483.438 387.702L485.203 389.077C484.641 389.931 483.797 390.691 482.672 391.358C481.557 392.014 480.177 392.342 478.531 392.342ZM478.156 377.186C477.573 377.186 477.021 377.296 476.5 377.514C475.979 377.723 475.51 378.03 475.094 378.436C474.677 378.853 474.323 379.363 474.031 379.967C473.75 380.561 473.552 381.249 473.438 382.03H482.531V381.889C482.531 381.368 482.432 380.811 482.234 380.217C482.036 379.613 481.76 379.092 481.406 378.655C481.052 378.217 480.604 377.863 480.062 377.592C479.531 377.322 478.896 377.186 478.156 377.186Z" fill="black"/>
    <path d="M95.0918 154.492C123.811 154.492 147.092 131.211 147.092 102.492C147.092 73.7737 123.811 50.4925 95.0918 50.4925C66.373 50.4925 43.0918 73.7737 43.0918 102.492C43.0918 131.211 66.373 154.492 95.0918 154.492Z" stroke="black" stroke-width="4"/>
    <path d="M60.1191 91.4339V96.2952H67.7637V98.9485H60.1191V109.859C60.1191 110.638 60.2181 111.281 60.416 111.788C60.6139 112.296 60.8861 112.698 61.2324 112.994C61.5788 113.304 61.9746 113.52 62.4199 113.644C62.8776 113.768 63.36 113.829 63.8672 113.829C64.2383 113.829 64.6217 113.811 65.0176 113.774C65.4134 113.724 65.8031 113.669 66.1865 113.607C66.5576 113.545 66.904 113.483 67.2256 113.421C67.5596 113.347 67.8317 113.285 68.042 113.236L68.5244 115.666C68.2399 115.839 67.8936 115.994 67.4854 116.13C67.0771 116.254 66.6318 116.359 66.1494 116.446C65.667 116.545 65.1536 116.619 64.6094 116.668C64.0775 116.718 63.5456 116.742 63.0137 116.742C62.123 116.742 61.2881 116.619 60.5088 116.371C59.7419 116.112 59.0739 115.703 58.5049 115.147C57.9359 114.603 57.4844 113.897 57.1504 113.032C56.8288 112.153 56.668 111.096 56.668 109.859V98.9485H51.3984V96.2952H56.668V91.4339H60.1191ZM78.2471 99.2825C78.5192 98.8743 78.8223 98.5032 79.1562 98.1693C79.4902 97.8229 79.8428 97.5198 80.2139 97.2601C80.8076 96.8271 81.457 96.4993 82.1621 96.2767C82.8796 96.054 83.6403 95.9365 84.4443 95.9241C85.4958 95.9241 86.4482 96.0788 87.3018 96.388C88.1676 96.6849 88.9036 97.1549 89.5098 97.7982C90.1159 98.4414 90.5798 99.2578 90.9014 100.247C91.2354 101.225 91.4023 102.387 91.4023 103.736V116.371H87.9697V103.699C87.9697 102.907 87.877 102.214 87.6914 101.62C87.5059 101.014 87.2337 100.513 86.875 100.117C86.4915 99.6845 86.0091 99.3629 85.4277 99.1526C84.8464 98.93 84.1784 98.8248 83.4238 98.8372C82.8053 98.8372 82.2178 98.9238 81.6611 99.097C81.1045 99.2702 80.5911 99.5176 80.1211 99.8392C79.75 100.087 79.4036 100.377 79.082 100.711C78.7728 101.033 78.4945 101.392 78.2471 101.787V116.371H74.8145V87.8714H78.2471V99.2825ZM98.1748 96.2952H108.436V113.403H114.985V116.371H98.1748V113.403H105.003V99.2825H98.1748V96.2952ZM104.558 91.0257C104.558 90.7288 104.601 90.4505 104.688 90.1907C104.786 89.931 104.935 89.7083 105.133 89.5228C105.294 89.362 105.498 89.2383 105.745 89.1517C106.005 89.0527 106.296 89.0032 106.617 89.0032C106.939 89.0032 107.223 89.0527 107.471 89.1517C107.718 89.2383 107.922 89.362 108.083 89.5228C108.281 89.6959 108.429 89.9124 108.528 90.1722C108.627 90.4319 108.677 90.7165 108.677 91.0257C108.677 91.5823 108.504 92.0462 108.157 92.4173C107.811 92.7884 107.298 92.9739 106.617 92.9739C105.924 92.9739 105.405 92.7884 105.059 92.4173C104.725 92.0462 104.558 91.5823 104.558 91.0257ZM133.8 111.046C133.8 110.638 133.719 110.273 133.559 109.951C133.398 109.617 133.126 109.314 132.742 109.042C132.359 108.77 131.852 108.523 131.221 108.3C130.59 108.065 129.804 107.855 128.864 107.669C127.714 107.434 126.662 107.15 125.71 106.816C124.77 106.482 123.966 106.08 123.298 105.61C122.618 105.152 122.092 104.614 121.721 103.995C121.35 103.365 121.164 102.635 121.164 101.806C121.164 100.99 121.356 100.229 121.739 99.5237C122.123 98.8063 122.661 98.1816 123.354 97.6497C124.046 97.1178 124.869 96.6972 125.821 96.388C126.786 96.0788 127.844 95.9241 128.994 95.9241C130.231 95.9241 131.344 96.0849 132.334 96.4066C133.324 96.7282 134.165 97.1735 134.857 97.7425C135.55 98.3115 136.082 98.9795 136.453 99.7464C136.837 100.501 137.028 101.317 137.028 102.196H133.596C133.596 101.763 133.484 101.342 133.262 100.934C133.039 100.513 132.73 100.142 132.334 99.8206C131.938 99.499 131.456 99.2392 130.887 99.0413C130.33 98.8434 129.699 98.7444 128.994 98.7444C128.264 98.7444 127.621 98.8248 127.064 98.9857C126.52 99.1465 126.069 99.3629 125.71 99.6351C125.339 99.9072 125.061 100.223 124.875 100.581C124.689 100.94 124.597 101.311 124.597 101.695C124.597 102.09 124.671 102.443 124.819 102.752C124.968 103.062 125.228 103.34 125.599 103.587C125.957 103.835 126.44 104.057 127.046 104.255C127.664 104.453 128.444 104.645 129.384 104.83C130.621 105.09 131.728 105.393 132.705 105.74C133.682 106.074 134.505 106.476 135.173 106.946C135.841 107.428 136.348 107.985 136.694 108.616C137.053 109.246 137.232 109.976 137.232 110.805C137.232 111.696 137.028 112.506 136.62 113.236C136.224 113.965 135.668 114.59 134.95 115.11C134.233 115.629 133.373 116.031 132.371 116.316C131.369 116.6 130.274 116.742 129.087 116.742C127.726 116.742 126.514 116.563 125.45 116.204C124.386 115.833 123.49 115.345 122.76 114.739C122.018 114.145 121.449 113.452 121.053 112.66C120.669 111.869 120.478 111.046 120.478 110.193H123.91C123.96 110.898 124.145 111.492 124.467 111.974C124.801 112.456 125.215 112.846 125.71 113.143C126.192 113.44 126.73 113.65 127.324 113.774C127.918 113.897 128.506 113.959 129.087 113.959C130.002 113.959 130.8 113.854 131.48 113.644C132.161 113.421 132.693 113.118 133.076 112.735C133.311 112.5 133.491 112.24 133.614 111.955C133.738 111.671 133.8 111.368 133.8 111.046Z" fill="black"/>
</g>
<defs>
<clipPath id="clip0_6_117">
<rect width="494" height="522" fill="white"/>
</clipPath>
</defs>
</svg>
